<svg width="45" height="45" viewBox="0 0 45 45" fill="none" xmlns="http://www.w3.org/2000/svg">
<g clip-path="url(#clip0)">
<path d="M34.3388 23.319C31.407 23.3087 28.6024 24.5161 26.5951 26.6532C23.7079 24.3499 20.1211 23.1016 16.428 23.1157H16.3988C11.9602 23.1251 7.84109 24.8504 4.78811 27.9904C1.68667 31.16 -0.00942543 35.4923 3.93994e-05 40.1929C0.00193236 40.4499 0.102638 40.696 0.281334 40.8808C0.463438 41.0633 0.711416 41.1647 0.969238 41.1621L26.4107 41.1136C26.469 41.1814 26.5269 41.2397 26.5852 41.3074C29.9256 44.8424 35.235 45.6692 39.4922 43.3178C43.7495 40.966 45.8765 36.0317 44.6627 31.322C43.4489 26.6123 39.2026 23.3205 34.3388 23.319ZM1.96759 39.2138C2.17127 35.4048 3.64438 31.9255 6.17376 29.3378C8.85874 26.5756 12.4932 25.0541 16.3988 25.0541H16.428C19.6876 25.0412 22.8542 26.1421 25.4029 28.1748C23.2555 31.4913 23.1139 35.7224 25.0345 39.1752L1.96759 39.2138ZM34.3388 42.7029C29.5212 42.7029 25.616 38.7977 25.616 33.9801C25.616 29.1629 29.5212 25.2574 34.3388 25.2574C39.1564 25.2574 43.0616 29.1629 43.0616 33.9801C43.0616 38.7977 39.1564 42.7029 34.3388 42.7029Z" fill="white"/>
<path d="M16.4084 20.8089C22.0661 20.8089 26.6528 16.2222 26.6528 10.5645C26.6528 4.90642 22.0661 0.319763 16.4084 0.319763C10.7507 0.319763 6.16406 4.90642 6.16406 10.5645C6.16936 16.2199 10.7526 20.8036 16.4084 20.8089ZM16.4084 2.25816C20.9958 2.25816 24.7144 5.97709 24.7144 10.5645C24.7144 15.1515 20.9958 18.8705 16.4084 18.8705C11.821 18.8705 8.10246 15.1515 8.10246 10.5645C8.10776 5.97936 11.8233 2.26384 16.4084 2.25816Z" fill="white"/>
<path d="M38.264 33.0108H35.308V30.0548C35.308 29.5194 34.8741 29.0856 34.3388 29.0856C33.8035 29.0856 33.3696 29.5194 33.3696 30.0548V33.0108H30.4135C29.8782 33.0108 29.4443 33.4447 29.4443 33.98C29.4443 34.5154 29.8782 34.9492 30.4135 34.9492H33.3696V37.9053C33.3696 38.4406 33.8035 38.8745 34.3388 38.8745C34.8741 38.8745 35.308 38.4406 35.308 37.9053V34.9492H38.264C38.7994 34.9492 39.2332 34.5154 39.2332 33.98C39.2332 33.4447 38.7994 33.0108 38.264 33.0108Z" fill="white"/>
</g>
<defs>
<clipPath id="clip0">
<rect width="45" height="45" fill="white"/>
</clipPath>
</defs>
</svg>
