<svg width="14" height="14" viewBox="0 0 14 14" fill="none" xmlns="http://www.w3.org/2000/svg">
<path fill-rule="evenodd" clip-rule="evenodd" d="M7 14C3.13381 14 0 10.8662 0 7C0 3.13381 3.13381 0 7 0C10.8662 0 14 3.13381 14 7C14 10.8662 10.8662 14 7 14ZM10.1452 6.13375C10.2826 5.21675 9.58388 4.72369 8.62925 4.39469L8.939 3.15219L8.183 2.96406L7.88112 4.17375C7.6825 4.12388 7.47862 4.0775 7.27519 4.03113L7.57925 2.81356L6.82325 2.625L6.5135 3.86706C6.349 3.82944 6.18713 3.79269 6.0305 3.75331L6.03137 3.74937L4.98838 3.48906L4.78713 4.29669C4.78713 4.29669 5.34844 4.42531 5.33663 4.43319C5.64288 4.50975 5.698 4.71231 5.68881 4.87331L5.33619 6.28862C5.35719 6.29387 5.38431 6.30175 5.41494 6.31356L5.33488 6.29387L4.8405 8.27662C4.80288 8.36937 4.70794 8.50894 4.49356 8.456C4.50144 8.46694 3.94406 8.31906 3.94406 8.31906L3.56869 9.18444L4.55306 9.42988C4.73594 9.47581 4.91531 9.52394 5.09162 9.569L4.77881 10.8255L5.53437 11.0136L5.84412 9.77112C6.05062 9.82669 6.251 9.87831 6.447 9.92731L6.13812 11.1646L6.89412 11.3527L7.20694 10.0988C8.49669 10.3429 9.46619 10.2445 9.87437 9.07812C10.2034 8.13925 9.85819 7.59719 9.17963 7.24413C9.674 7.13038 10.0459 6.80531 10.1452 6.13375ZM8.41706 8.55663C8.18388 9.49594 6.60231 8.988 6.08956 8.86069L6.50519 7.196C7.01794 7.32419 8.66162 7.5775 8.41706 8.55663ZM8.65112 6.12019C8.43806 6.97463 7.12206 6.54019 6.6955 6.43388L7.07175 4.9245C7.49831 5.03081 8.87337 5.229 8.65112 6.12019Z" fill="#FCAD68"/>
</svg>
