<svg width="14" height="14" viewBox="0 0 14 14" fill="none" xmlns="http://www.w3.org/2000/svg">
<path d="M3.20976 2.69907L3.20801 3.93749V10.0648C3.20801 10.5676 3.40775 11.0498 3.76328 11.4054C4.11882 11.7609 4.60103 11.9607 5.10384 11.9607H10.1298C10.0393 12.2166 9.87161 12.4381 9.64994 12.5948C9.42826 12.7515 9.16347 12.8357 8.89201 12.8357H5.10384C4.36897 12.8357 3.6642 12.5437 3.14457 12.0241C2.62493 11.5045 2.33301 10.7997 2.33301 10.0648V3.93749C2.33301 3.36582 2.69876 2.87874 3.20976 2.69907ZM10.3538 1.16666C10.5262 1.16666 10.6969 1.20061 10.8561 1.26656C11.0154 1.33252 11.16 1.4292 11.2819 1.55108C11.4038 1.67296 11.5005 1.81764 11.5664 1.97688C11.6324 2.13612 11.6663 2.3068 11.6663 2.47916V10.0625C11.6663 10.2348 11.6324 10.4055 11.5664 10.5648C11.5005 10.724 11.4038 10.8687 11.2819 10.9906C11.16 11.1124 11.0154 11.2091 10.8561 11.2751C10.6969 11.341 10.5262 11.375 10.3538 11.375H5.10384C4.75574 11.375 4.4219 11.2367 4.17576 10.9906C3.92962 10.7444 3.79134 10.4106 3.79134 10.0625V2.47916C3.79134 2.13106 3.92962 1.79722 4.17576 1.55108C4.4219 1.30494 4.75574 1.16666 5.10384 1.16666H10.3538ZM10.3538 2.04166H5.10384C4.98781 2.04166 4.87653 2.08775 4.79448 2.1698C4.71243 2.25184 4.66634 2.36312 4.66634 2.47916V10.0625C4.66634 10.304 4.86234 10.5 5.10384 10.5H10.3538C10.4699 10.5 10.5812 10.4539 10.6632 10.3718C10.7452 10.2898 10.7913 10.1785 10.7913 10.0625V2.47916C10.7913 2.36312 10.7452 2.25184 10.6632 2.1698C10.5812 2.08775 10.4699 2.04166 10.3538 2.04166Z" fill="#3877FF"/>
</svg>
