<svg width="45" height="45" viewBox="0 0 45 45" fill="none" xmlns="http://www.w3.org/2000/svg">
<path d="M16.875 9.84375C16.4578 9.84375 16.05 9.96746 15.7031 10.1992C15.3562 10.431 15.0858 10.7605 14.9262 11.1459C14.7665 11.5313 14.7248 11.9555 14.8062 12.3646C14.8875 12.7738 15.0884 13.1497 15.3834 13.4447C15.6784 13.7397 16.0543 13.9406 16.4635 14.022C16.8727 14.1034 17.2968 14.0616 17.6822 13.9019C18.0677 13.7423 18.3971 13.4719 18.6289 13.125C18.8607 12.7781 18.9844 12.3703 18.9844 11.9531C18.9837 11.3939 18.7613 10.8577 18.3659 10.4623C17.9704 10.0668 17.4342 9.84438 16.875 9.84375ZM16.875 12.6562C16.7359 12.6562 16.6 12.615 16.4844 12.5378C16.3687 12.4605 16.2786 12.3507 16.2254 12.2222C16.1722 12.0937 16.1583 11.9523 16.1854 11.816C16.2125 11.6796 16.2795 11.5543 16.3778 11.4559C16.4761 11.3576 16.6014 11.2906 16.7378 11.2635C16.8742 11.2364 17.0156 11.2503 17.1441 11.3035C17.2726 11.3567 17.3824 11.4469 17.4596 11.5625C17.5369 11.6781 17.5781 11.8141 17.5781 11.9531C17.5779 12.1395 17.5038 12.3183 17.372 12.4501C17.2401 12.5819 17.0614 12.656 16.875 12.6562Z" fill="white"/>
<path d="M30.2344 10.5469C30.2344 10.3604 30.1603 10.1816 30.0284 10.0497C29.8966 9.91783 29.7177 9.84375 29.5312 9.84375H23.9062C23.7198 9.84375 23.5409 9.91783 23.4091 10.0497C23.2772 10.1816 23.2031 10.3604 23.2031 10.5469C23.2031 10.7334 23.2772 10.9122 23.4091 11.0441C23.5409 11.1759 23.7198 11.25 23.9062 11.25H29.5312C29.7177 11.25 29.8966 11.1759 30.0284 11.0441C30.1603 10.9122 30.2344 10.7334 30.2344 10.5469Z" fill="white"/>
<path d="M29.5312 11.9531H28.125C27.9385 11.9531 27.7597 12.0272 27.6278 12.1591C27.496 12.2909 27.4219 12.4698 27.4219 12.6562C27.4219 12.8427 27.496 13.0216 27.6278 13.1534C27.7597 13.2853 27.9385 13.3594 28.125 13.3594H29.5312C29.7177 13.3594 29.8966 13.2853 30.0284 13.1534C30.1603 13.0216 30.2344 12.8427 30.2344 12.6562C30.2344 12.4698 30.1603 12.2909 30.0284 12.1591C29.8966 12.0272 29.7177 11.9531 29.5312 11.9531Z" fill="white"/>
<path d="M21.7969 9.84375H21.0938C20.9073 9.84375 20.7284 9.91783 20.5966 10.0497C20.4647 10.1816 20.3906 10.3604 20.3906 10.5469C20.3906 10.7334 20.4647 10.9122 20.5966 11.0441C20.7284 11.1759 20.9073 11.25 21.0938 11.25H21.7969C21.9834 11.25 22.1622 11.1759 22.2941 11.0441C22.4259 10.9122 22.5 10.7334 22.5 10.5469C22.5 10.3604 22.4259 10.1816 22.2941 10.0497C22.1622 9.91783 21.9834 9.84375 21.7969 9.84375Z" fill="white"/>
<path d="M16.875 7.03125C17.2922 7.03125 17.7 6.90754 18.0469 6.67576C18.3938 6.44398 18.6642 6.11454 18.8238 5.7291C18.9835 5.34366 19.0252 4.91954 18.9438 4.51036C18.8625 4.10118 18.6616 3.72532 18.3666 3.43032C18.0716 3.13532 17.6957 2.93442 17.2865 2.85303C16.8773 2.77164 16.4532 2.81341 16.0678 2.97307C15.6823 3.13272 15.3529 3.40308 15.1211 3.74997C14.8893 4.09685 14.7656 4.50468 14.7656 4.92188C14.7663 5.48112 14.9887 6.01729 15.3841 6.41273C15.7796 6.80818 16.3158 7.03062 16.875 7.03125ZM16.875 4.21875C17.0141 4.21875 17.15 4.25999 17.2656 4.33725C17.3813 4.41451 17.4714 4.52432 17.5246 4.6528C17.5778 4.78128 17.5917 4.92266 17.5646 5.05905C17.5375 5.19544 17.4705 5.32073 17.3722 5.41906C17.2739 5.51739 17.1486 5.58436 17.0122 5.61149C16.8758 5.63862 16.7344 5.6247 16.6059 5.57148C16.4774 5.51826 16.3676 5.42814 16.2904 5.31251C16.2131 5.19688 16.1719 5.06094 16.1719 4.92188C16.1721 4.73546 16.2462 4.55674 16.378 4.42492C16.5099 4.29311 16.6886 4.21896 16.875 4.21875Z" fill="white"/>
<path d="M23.9062 4.21875H29.5312C29.7177 4.21875 29.8966 4.14467 30.0284 4.01281C30.1603 3.88095 30.2344 3.70211 30.2344 3.51562C30.2344 3.32914 30.1603 3.1503 30.0284 3.01844C29.8966 2.88658 29.7177 2.8125 29.5312 2.8125H23.9062C23.7198 2.8125 23.5409 2.88658 23.4091 3.01844C23.2772 3.1503 23.2031 3.32914 23.2031 3.51562C23.2031 3.70211 23.2772 3.88095 23.4091 4.01281C23.5409 4.14467 23.7198 4.21875 23.9062 4.21875Z" fill="white"/>
<path d="M29.5312 4.92188H28.125C27.9385 4.92188 27.7597 4.99595 27.6278 5.12782C27.496 5.25968 27.4219 5.43852 27.4219 5.625C27.4219 5.81148 27.496 5.99032 27.6278 6.12218C27.7597 6.25405 27.9385 6.32812 28.125 6.32812H29.5312C29.7177 6.32812 29.8966 6.25405 30.0284 6.12218C30.1603 5.99032 30.2344 5.81148 30.2344 5.625C30.2344 5.43852 30.1603 5.25968 30.0284 5.12782C29.8966 4.99595 29.7177 4.92188 29.5312 4.92188Z" fill="white"/>
<path d="M21.0938 4.21875H21.7969C21.9834 4.21875 22.1622 4.14467 22.2941 4.01281C22.4259 3.88095 22.5 3.70211 22.5 3.51562C22.5 3.32914 22.4259 3.1503 22.2941 3.01844C22.1622 2.88658 21.9834 2.8125 21.7969 2.8125H21.0938C20.9073 2.8125 20.7284 2.88658 20.5966 3.01844C20.4647 3.1503 20.3906 3.32914 20.3906 3.51562C20.3906 3.70211 20.4647 3.88095 20.5966 4.01281C20.7284 4.14467 20.9073 4.21875 21.0938 4.21875Z" fill="white"/>
<path d="M16.875 16.875C16.4578 16.875 16.05 16.9987 15.7031 17.2305C15.3562 17.4623 15.0858 17.7917 14.9262 18.1772C14.7665 18.5626 14.7248 18.9867 14.8062 19.3959C14.8875 19.8051 15.0884 20.1809 15.3834 20.4759C15.6784 20.7709 16.0543 20.9718 16.4635 21.0532C16.8727 21.1346 17.2968 21.0928 17.6822 20.9332C18.0677 20.7735 18.3971 20.5032 18.6289 20.1563C18.8607 19.8094 18.9844 19.4016 18.9844 18.9844C18.9837 18.4251 18.7613 17.889 18.3659 17.4935C17.9704 17.0981 17.4342 16.8756 16.875 16.875ZM16.875 19.6875C16.7359 19.6875 16.6 19.6463 16.4844 19.569C16.3687 19.4917 16.2786 19.3819 16.2254 19.2535C16.1722 19.125 16.1583 18.9836 16.1854 18.8472C16.2125 18.7108 16.2795 18.5855 16.3778 18.4872C16.4761 18.3889 16.6014 18.3219 16.7378 18.2948C16.8742 18.2676 17.0156 18.2816 17.1441 18.3348C17.2726 18.388 17.3824 18.4781 17.4596 18.5937C17.5369 18.7094 17.5781 18.8453 17.5781 18.9844C17.5779 19.1708 17.5038 19.3495 17.372 19.4813C17.2401 19.6131 17.0614 19.6873 16.875 19.6875Z" fill="white"/>
<path d="M2.8125 33.0469C2.8125 33.4641 2.93621 33.8719 3.16799 34.2188C3.39978 34.5657 3.72921 34.836 4.11465 34.9957C4.50009 35.1553 4.92421 35.1971 5.33339 35.1157C5.74257 35.0343 6.11843 34.8334 6.41343 34.5384C6.70843 34.2434 6.90933 33.8676 6.99072 33.4584C7.07211 33.0492 7.03034 32.6251 6.87068 32.2397C6.71103 31.8542 6.44067 31.5248 6.09378 31.293C5.7469 31.0612 5.33907 30.9375 4.92187 30.9375C4.36263 30.9381 3.82646 31.1606 3.43102 31.556C3.03557 31.9515 2.81313 32.4876 2.8125 33.0469ZM5.625 33.0469C5.625 33.1859 5.58376 33.3219 5.5065 33.4375C5.42924 33.5531 5.31943 33.6433 5.19095 33.6965C5.06247 33.7497 4.92109 33.7636 4.7847 33.7365C4.64831 33.7094 4.52302 33.6424 4.42469 33.5441C4.32636 33.4457 4.25939 33.3204 4.23226 33.184C4.20513 33.0477 4.21905 32.9063 4.27227 32.7778C4.32549 32.6493 4.41561 32.5395 4.53124 32.4622C4.64687 32.385 4.78281 32.3437 4.92187 32.3437C5.10829 32.344 5.28701 32.4181 5.41883 32.5499C5.55064 32.6817 5.62479 32.8605 5.625 33.0469Z" fill="white"/>
<path d="M23.9062 18.2812H29.5312C29.7177 18.2812 29.8966 18.2072 30.0284 18.0753C30.1603 17.9434 30.2344 17.7646 30.2344 17.5781C30.2344 17.3916 30.1603 17.2128 30.0284 17.0809C29.8966 16.9491 29.7177 16.875 29.5312 16.875H23.9062C23.7198 16.875 23.5409 16.9491 23.4091 17.0809C23.2772 17.2128 23.2031 17.3916 23.2031 17.5781C23.2031 17.7646 23.2772 17.9434 23.4091 18.0753C23.5409 18.2072 23.7198 18.2812 23.9062 18.2812Z" fill="white"/>
<path d="M29.5312 18.9844H28.125C27.9385 18.9844 27.7597 19.0585 27.6278 19.1903C27.496 19.3222 27.4219 19.501 27.4219 19.6875C27.4219 19.874 27.496 20.0528 27.6278 20.1847C27.7597 20.3165 27.9385 20.3906 28.125 20.3906H29.5312C29.7177 20.3906 29.8966 20.3165 30.0284 20.1847C30.1603 20.0528 30.2344 19.874 30.2344 19.6875C30.2344 19.501 30.1603 19.3222 30.0284 19.1903C29.8966 19.0585 29.7177 18.9844 29.5312 18.9844Z" fill="white"/>
<path d="M21.7969 16.875H21.0938C20.9073 16.875 20.7284 16.9491 20.5966 17.0809C20.4647 17.2128 20.3906 17.3916 20.3906 17.5781C20.3906 17.7646 20.4647 17.9434 20.5966 18.0753C20.7284 18.2072 20.9073 18.2812 21.0938 18.2812H21.7969C21.9834 18.2812 22.1622 18.2072 22.2941 18.0753C22.4259 17.9434 22.5 17.7646 22.5 17.5781C22.5 17.3916 22.4259 17.2128 22.2941 17.0809C22.1622 16.9491 21.9834 16.875 21.7969 16.875Z" fill="white"/>
<path d="M5.625 40.7812H4.21875C4.03227 40.7812 3.85343 40.8553 3.72157 40.9872C3.5897 41.1191 3.51562 41.2979 3.51562 41.4844C3.51562 41.6709 3.5897 41.8497 3.72157 41.9816C3.85343 42.1134 4.03227 42.1875 4.21875 42.1875H5.625C5.81148 42.1875 5.99032 42.1134 6.12218 41.9816C6.25405 41.8497 6.32812 41.6709 6.32812 41.4844C6.32812 41.2979 6.25405 41.1191 6.12218 40.9872C5.99032 40.8553 5.81148 40.7812 5.625 40.7812Z" fill="white"/>
<path d="M20.3906 33.0469C20.3906 33.4641 20.5143 33.8719 20.7461 34.2188C20.9779 34.5657 21.3073 34.836 21.6928 34.9957C22.0782 35.1553 22.5023 35.1971 22.9115 35.1157C23.3207 35.0343 23.6966 34.8334 23.9916 34.5384C24.2866 34.2434 24.4875 33.8676 24.5688 33.4584C24.6502 33.0492 24.6085 32.6251 24.4488 32.2397C24.2892 31.8542 24.0188 31.5248 23.6719 31.293C23.325 31.0612 22.9172 30.9375 22.5 30.9375C21.9408 30.9381 21.4046 31.1606 21.0091 31.556C20.6137 31.9515 20.3913 32.4876 20.3906 33.0469ZM23.2031 33.0469C23.2031 33.1859 23.1619 33.3219 23.0846 33.4375C23.0074 33.5531 22.8976 33.6433 22.7691 33.6965C22.6406 33.7497 22.4992 33.7636 22.3628 33.7365C22.2264 33.7094 22.1011 33.6424 22.0028 33.5441C21.9045 33.4457 21.8375 33.3204 21.8104 33.184C21.7833 33.0477 21.7972 32.9063 21.8504 32.7778C21.9036 32.6493 21.9937 32.5395 22.1094 32.4622C22.225 32.385 22.3609 32.3437 22.5 32.3437C22.6864 32.344 22.8651 32.4181 22.997 32.5499C23.1288 32.6817 23.2029 32.8605 23.2031 33.0469Z" fill="white"/>
<path d="M23.2031 40.7812H21.7969C21.6104 40.7812 21.4316 40.8553 21.2997 40.9872C21.1678 41.1191 21.0938 41.2979 21.0938 41.4844C21.0938 41.6709 21.1678 41.8497 21.2997 41.9816C21.4316 42.1134 21.6104 42.1875 21.7969 42.1875H23.2031C23.3896 42.1875 23.5684 42.1134 23.7003 41.9816C23.8322 41.8497 23.9062 41.6709 23.9062 41.4844C23.9062 41.2979 23.8322 41.1191 23.7003 40.9872C23.5684 40.8553 23.3896 40.7812 23.2031 40.7812Z" fill="white"/>
<path d="M42.1875 28.8281H40.7812V26.0156C40.7812 25.8291 40.7072 25.6503 40.5753 25.5184C40.4434 25.3866 40.2646 25.3125 40.0781 25.3125H23.2031V23.2031H30.2344C30.7936 23.2024 31.3297 22.9799 31.7251 22.5845C32.1205 22.1891 32.343 21.653 32.3438 21.0938V16.875C32.3441 16.3558 32.1522 15.8548 31.805 15.4688C32.1522 15.0827 32.3441 14.5817 32.3438 14.0625V9.84375C32.3441 9.32452 32.1522 8.82355 31.805 8.4375C32.1522 8.05145 32.3441 7.55048 32.3438 7.03125V2.8125C32.343 2.25329 32.1205 1.71719 31.7251 1.32177C31.3297 0.926345 30.7936 0.703869 30.2344 0.703125H14.7656C14.2064 0.703869 13.6703 0.926345 13.2749 1.32177C12.8795 1.71719 12.657 2.25329 12.6562 2.8125V7.03125C12.6559 7.55048 12.8478 8.05145 13.195 8.4375C12.8478 8.82355 12.6559 9.32452 12.6562 9.84375V14.0625C12.6559 14.5817 12.8478 15.0827 13.195 15.4688C12.8478 15.8548 12.6559 16.3558 12.6562 16.875V21.0938C12.657 21.653 12.8795 22.1891 13.2749 22.5845C13.6703 22.9799 14.2064 23.2024 14.7656 23.2031H21.7969V25.3125H4.92188C4.73539 25.3125 4.55655 25.3866 4.42469 25.5184C4.29283 25.6503 4.21875 25.8291 4.21875 26.0156V28.8281H2.8125C2.25329 28.8289 1.71719 29.0513 1.32177 29.4468C0.926345 29.8422 0.703869 30.3783 0.703125 30.9375V42.1875C0.703869 42.7467 0.926345 43.2828 1.32177 43.6782C1.71719 44.0737 2.25329 44.2961 2.8125 44.2969H7.03125C7.59046 44.2961 8.12656 44.0737 8.52198 43.6782C8.91741 43.2828 9.13988 42.7467 9.14062 42.1875V30.9375C9.13988 30.3783 8.91741 29.8422 8.52198 29.4468C8.12656 29.0513 7.59046 28.8289 7.03125 28.8281H5.625V26.7188H21.7969V28.8281H20.3906C19.8314 28.8289 19.2953 29.0513 18.8999 29.4468C18.5045 29.8422 18.282 30.3783 18.2812 30.9375V42.1875C18.282 42.7467 18.5045 43.2828 18.8999 43.6782C19.2953 44.0737 19.8314 44.2961 20.3906 44.2969H24.6094C25.1686 44.2961 25.7047 44.0737 26.1001 43.6782C26.4955 43.2828 26.718 42.7467 26.7188 42.1875V30.9375C26.718 30.3783 26.4955 29.8422 26.1001 29.4468C25.7047 29.0513 25.1686 28.8289 24.6094 28.8281H23.2031V26.7188H39.375V28.8281H37.9688C37.4095 28.8289 36.8734 29.0513 36.478 29.4468C36.0826 29.8422 35.8601 30.3783 35.8594 30.9375V42.1875C35.8601 42.7467 36.0826 43.2828 36.478 43.6782C36.8734 44.0737 37.4095 44.2961 37.9688 44.2969H42.1875C42.7467 44.2961 43.2828 44.0737 43.6782 43.6782C44.0737 43.2828 44.2961 42.7467 44.2969 42.1875V30.9375C44.2961 30.3783 44.0737 29.8422 43.6782 29.4468C43.2828 29.0513 42.7467 28.8289 42.1875 28.8281ZM7.03125 30.2344C7.21765 30.2346 7.39635 30.3088 7.52815 30.4406C7.65996 30.5724 7.73412 30.7511 7.73438 30.9375V42.1875C7.73412 42.3739 7.65996 42.5526 7.52815 42.6844C7.39635 42.8162 7.21765 42.8904 7.03125 42.8906H2.8125C2.6261 42.8904 2.4474 42.8162 2.3156 42.6844C2.18379 42.5526 2.10963 42.3739 2.10938 42.1875V30.9375C2.10963 30.7511 2.18379 30.5724 2.3156 30.4406C2.4474 30.3088 2.6261 30.2346 2.8125 30.2344H7.03125ZM14.0625 2.8125C14.0628 2.6261 14.1369 2.4474 14.2687 2.3156C14.4005 2.18379 14.5792 2.10963 14.7656 2.10938H30.2344C30.4208 2.10963 30.5995 2.18379 30.7313 2.3156C30.8631 2.4474 30.9372 2.6261 30.9375 2.8125V7.03125C30.9372 7.21765 30.8631 7.39635 30.7313 7.52815C30.5995 7.65996 30.4208 7.73412 30.2344 7.73438H14.7656C14.5792 7.73412 14.4005 7.65996 14.2687 7.52815C14.1369 7.39635 14.0628 7.21765 14.0625 7.03125V2.8125ZM14.0625 9.84375C14.0628 9.65735 14.1369 9.47865 14.2687 9.34685C14.4005 9.21504 14.5792 9.14088 14.7656 9.14062H30.2344C30.4208 9.14088 30.5995 9.21504 30.7313 9.34685C30.8631 9.47865 30.9372 9.65735 30.9375 9.84375V14.0625C30.9372 14.2489 30.8631 14.4276 30.7313 14.5594C30.5995 14.6912 30.4208 14.7654 30.2344 14.7656H14.7656C14.5792 14.7654 14.4005 14.6912 14.2687 14.5594C14.1369 14.4276 14.0628 14.2489 14.0625 14.0625V9.84375ZM24.6094 30.2344C24.7958 30.2346 24.9745 30.3088 25.1063 30.4406C25.2381 30.5724 25.3122 30.7511 25.3125 30.9375V42.1875C25.3122 42.3739 25.2381 42.5526 25.1063 42.6844C24.9745 42.8162 24.7958 42.8904 24.6094 42.8906H20.3906C20.2042 42.8904 20.0255 42.8162 19.8937 42.6844C19.7619 42.5526 19.6878 42.3739 19.6875 42.1875V30.9375C19.6878 30.7511 19.7619 30.5724 19.8937 30.4406C20.0255 30.3088 20.2042 30.2346 20.3906 30.2344H24.6094ZM14.7656 21.7969C14.5792 21.7966 14.4005 21.7225 14.2687 21.5907C14.1369 21.4588 14.0628 21.2802 14.0625 21.0938V16.875C14.0628 16.6886 14.1369 16.5099 14.2687 16.3781C14.4005 16.2463 14.5792 16.1721 14.7656 16.1719H30.2344C30.4208 16.1721 30.5995 16.2463 30.7313 16.3781C30.8631 16.5099 30.9372 16.6886 30.9375 16.875V21.0938C30.9372 21.2802 30.8631 21.4588 30.7313 21.5907C30.5995 21.7225 30.4208 21.7966 30.2344 21.7969H14.7656ZM42.8906 42.1875C42.8904 42.3739 42.8162 42.5526 42.6844 42.6844C42.5526 42.8162 42.3739 42.8904 42.1875 42.8906H37.9688C37.7823 42.8904 37.6037 42.8162 37.4718 42.6844C37.34 42.5526 37.2659 42.3739 37.2656 42.1875V30.9375C37.2659 30.7511 37.34 30.5724 37.4718 30.4406C37.6037 30.3088 37.7823 30.2346 37.9688 30.2344H42.1875C42.3739 30.2346 42.5526 30.3088 42.6844 30.4406C42.8162 30.5724 42.8904 30.7511 42.8906 30.9375V42.1875Z" fill="white"/>
<path d="M40.0781 30.9375C39.6609 30.9375 39.2531 31.0612 38.9062 31.293C38.5593 31.5248 38.289 31.8542 38.1293 32.2397C37.9697 32.6251 37.9279 33.0492 38.0093 33.4584C38.0907 33.8676 38.2916 34.2434 38.5866 34.5384C38.8816 34.8334 39.2574 35.0343 39.6666 35.1157C40.0758 35.1971 40.4999 35.1553 40.8853 34.9957C41.2708 34.836 41.6002 34.5657 41.832 34.2188C42.0638 33.8719 42.1875 33.4641 42.1875 33.0469C42.1869 32.4876 41.9644 31.9515 41.569 31.556C41.1735 31.1606 40.6374 30.9381 40.0781 30.9375ZM40.0781 33.75C39.9391 33.75 39.8031 33.7088 39.6875 33.6315C39.5719 33.5542 39.4817 33.4444 39.4285 33.3159C39.3753 33.1875 39.3614 33.0461 39.3885 32.9097C39.4156 32.7733 39.4826 32.648 39.5809 32.5497C39.6793 32.4514 39.8046 32.3844 39.941 32.3573C40.0773 32.3301 40.2187 32.3441 40.3472 32.3973C40.4757 32.4505 40.5855 32.5406 40.6628 32.6562C40.74 32.7719 40.7813 32.9078 40.7813 33.0469C40.781 33.2333 40.7069 33.412 40.5751 33.5438C40.4433 33.6756 40.2645 33.7498 40.0781 33.75Z" fill="white"/>
<path d="M40.7812 40.7812H39.375C39.1885 40.7812 39.0097 40.8553 38.8778 40.9872C38.746 41.1191 38.6719 41.2979 38.6719 41.4844C38.6719 41.6709 38.746 41.8497 38.8778 41.9816C39.0097 42.1134 39.1885 42.1875 39.375 42.1875H40.7812C40.9677 42.1875 41.1466 42.1134 41.2784 41.9816C41.4103 41.8497 41.4844 41.6709 41.4844 41.4844C41.4844 41.2979 41.4103 41.1191 41.2784 40.9872C41.1466 40.8553 40.9677 40.7812 40.7812 40.7812Z" fill="white"/>
<path d="M5.625 38.6719H4.21875C4.03227 38.6719 3.85343 38.746 3.72157 38.8778C3.5897 39.0097 3.51562 39.1885 3.51562 39.375C3.51562 39.5615 3.5897 39.7403 3.72157 39.8722C3.85343 40.004 4.03227 40.0781 4.21875 40.0781H5.625C5.81148 40.0781 5.99032 40.004 6.12218 39.8722C6.25405 39.7403 6.32812 39.5615 6.32812 39.375C6.32812 39.1885 6.25405 39.0097 6.12218 38.8778C5.99032 38.746 5.81148 38.6719 5.625 38.6719Z" fill="white"/>
<path d="M23.2031 38.6719H21.7969C21.6104 38.6719 21.4316 38.746 21.2997 38.8778C21.1678 39.0097 21.0938 39.1885 21.0938 39.375C21.0938 39.5615 21.1678 39.7403 21.2997 39.8722C21.4316 40.004 21.6104 40.0781 21.7969 40.0781H23.2031C23.3896 40.0781 23.5684 40.004 23.7003 39.8722C23.8322 39.7403 23.9062 39.5615 23.9062 39.375C23.9062 39.1885 23.8322 39.0097 23.7003 38.8778C23.5684 38.746 23.3896 38.6719 23.2031 38.6719Z" fill="white"/>
<path d="M40.7812 38.6719H39.375C39.1885 38.6719 39.0097 38.746 38.8778 38.8778C38.746 39.0097 38.6719 39.1885 38.6719 39.375C38.6719 39.5615 38.746 39.7403 38.8778 39.8722C39.0097 40.004 39.1885 40.0781 39.375 40.0781H40.7812C40.9677 40.0781 41.1466 40.004 41.2784 39.8722C41.4103 39.7403 41.4844 39.5615 41.4844 39.375C41.4844 39.1885 41.4103 39.0097 41.2784 38.8778C41.1466 38.746 40.9677 38.6719 40.7812 38.6719Z" fill="white"/>
<path d="M5.625 36.5625H4.21875C4.03227 36.5625 3.85343 36.6366 3.72157 36.7684C3.5897 36.9003 3.51562 37.0791 3.51562 37.2656C3.51562 37.4521 3.5897 37.6309 3.72157 37.7628C3.85343 37.8947 4.03227 37.9688 4.21875 37.9688H5.625C5.81148 37.9688 5.99032 37.8947 6.12218 37.7628C6.25405 37.6309 6.32812 37.4521 6.32812 37.2656C6.32812 37.0791 6.25405 36.9003 6.12218 36.7684C5.99032 36.6366 5.81148 36.5625 5.625 36.5625Z" fill="white"/>
<path d="M23.2031 36.5625H21.7969C21.6104 36.5625 21.4316 36.6366 21.2997 36.7684C21.1678 36.9003 21.0938 37.0791 21.0938 37.2656C21.0938 37.4521 21.1678 37.6309 21.2997 37.7628C21.4316 37.8947 21.6104 37.9688 21.7969 37.9688H23.2031C23.3896 37.9688 23.5684 37.8947 23.7003 37.7628C23.8322 37.6309 23.9062 37.4521 23.9062 37.2656C23.9062 37.0791 23.8322 36.9003 23.7003 36.7684C23.5684 36.6366 23.3896 36.5625 23.2031 36.5625Z" fill="white"/>
<path d="M40.7812 36.5625H39.375C39.1885 36.5625 39.0097 36.6366 38.8778 36.7684C38.746 36.9003 38.6719 37.0791 38.6719 37.2656C38.6719 37.4521 38.746 37.6309 38.8778 37.7628C39.0097 37.8947 39.1885 37.9688 39.375 37.9688H40.7812C40.9677 37.9688 41.1466 37.8947 41.2784 37.7628C41.4103 37.6309 41.4844 37.4521 41.4844 37.2656C41.4844 37.0791 41.4103 36.9003 41.2784 36.7684C41.1466 36.6366 40.9677 36.5625 40.7812 36.5625Z" fill="white"/>
</svg>
