<svg width="132" height="93" viewBox="0 0 132 93" fill="none" xmlns="http://www.w3.org/2000/svg">
<path d="M4.576 83.081C4.576 83.5663 4.61933 83.9303 4.706 84.173C4.81 84.4157 4.992 84.589 5.252 84.693C5.512 84.7797 5.91067 84.823 6.448 84.823H7.696C8.632 84.823 9.412 84.5283 10.036 83.939C10.6773 83.3323 11.128 82.5177 11.388 81.495C11.388 81.4603 11.4227 81.443 11.492 81.443C11.544 81.443 11.5873 81.4517 11.622 81.469C11.674 81.4863 11.7 81.5123 11.7 81.547C11.5787 82.379 11.518 83.497 11.518 84.901C11.518 85.0397 11.4833 85.1437 11.414 85.213C11.362 85.265 11.258 85.291 11.102 85.291H0.858C0.823333 85.291 0.806 85.239 0.806 85.135C0.806 85.031 0.823333 84.979 0.858 84.979C1.39533 84.979 1.78533 84.9357 2.028 84.849C2.27067 84.7623 2.43533 84.5977 2.522 84.355C2.60867 84.095 2.652 83.705 2.652 83.185V75.229C2.652 74.709 2.60867 74.3277 2.522 74.085C2.43533 73.8423 2.262 73.6777 2.002 73.591C1.75933 73.487 1.378 73.435 0.858 73.435C0.823333 73.435 0.806 73.383 0.806 73.279C0.806 73.175 0.823333 73.123 0.858 73.123L2.054 73.149C2.74733 73.1837 3.28467 73.201 3.666 73.201C4.082 73.201 4.63667 73.1837 5.33 73.149L6.474 73.123C6.50867 73.123 6.526 73.175 6.526 73.279C6.526 73.383 6.50867 73.435 6.474 73.435C5.91933 73.435 5.512 73.487 5.252 73.591C4.992 73.6777 4.81 73.851 4.706 74.111C4.61933 74.3537 4.576 74.735 4.576 75.255V83.081ZM16.9219 83.185C16.9219 83.705 16.9653 84.095 17.0519 84.355C17.1386 84.5977 17.3033 84.7623 17.5459 84.849C17.8059 84.9357 18.2133 84.979 18.7679 84.979C18.8199 84.979 18.8459 85.031 18.8459 85.135C18.8459 85.239 18.8199 85.291 18.7679 85.291C18.2653 85.291 17.8753 85.2823 17.5979 85.265L15.9339 85.239L14.3219 85.265C14.0273 85.2823 13.6199 85.291 13.0999 85.291C13.0653 85.291 13.0479 85.239 13.0479 85.135C13.0479 85.031 13.0653 84.979 13.0999 84.979C13.6546 84.979 14.0619 84.9357 14.3219 84.849C14.5819 84.7623 14.7553 84.5977 14.8419 84.355C14.9459 84.095 14.9979 83.705 14.9979 83.185V75.229C14.9979 74.709 14.9459 74.3277 14.8419 74.085C14.7553 73.8423 14.5819 73.6777 14.3219 73.591C14.0619 73.487 13.6546 73.435 13.0999 73.435C13.0653 73.435 13.0479 73.383 13.0479 73.279C13.0479 73.175 13.0653 73.123 13.0999 73.123L14.3219 73.149C14.9806 73.1837 15.5179 73.201 15.9339 73.201C16.3673 73.201 16.9306 73.1837 17.6239 73.149L18.7679 73.123C18.8199 73.123 18.8459 73.175 18.8459 73.279C18.8459 73.383 18.8199 73.435 18.7679 73.435C18.2306 73.435 17.8319 73.487 17.5719 73.591C17.3293 73.695 17.1559 73.877 17.0519 74.137C16.9653 74.3797 16.9219 74.761 16.9219 75.281V83.185ZM48.9773 90.647C49.012 90.6297 49.0466 90.6643 49.0813 90.751C49.116 90.8377 49.1073 90.8897 49.0553 90.907C47.8593 91.1843 46.7413 91.323 45.7013 91.323C42.9106 91.323 40.068 90.777 37.1733 89.685C34.296 88.593 31.54 87.137 28.9053 85.317C28.2466 85.5077 27.588 85.603 26.9293 85.603C25.716 85.603 24.6326 85.317 23.6793 84.745C22.726 84.173 21.9806 83.4017 21.4433 82.431C20.9233 81.4603 20.6633 80.403 20.6633 79.259C20.6633 77.9243 21.01 76.7717 21.7033 75.801C22.3966 74.813 23.2806 74.0677 24.3553 73.565C25.4473 73.0623 26.5566 72.811 27.6833 72.811C28.8966 72.811 29.9713 73.1143 30.9073 73.721C31.8433 74.3103 32.5626 75.0817 33.0653 76.035C33.568 76.9883 33.8193 77.985 33.8193 79.025C33.8193 80.0823 33.5593 81.079 33.0393 82.015C32.5193 82.951 31.8173 83.731 30.9333 84.355C36.8266 88.6363 42.33 90.777 47.4433 90.777C48.0326 90.777 48.544 90.7337 48.9773 90.647ZM22.8213 78.557C22.8213 79.7703 23.0206 80.871 23.4193 81.859C23.818 82.847 24.3726 83.627 25.0833 84.199C25.8113 84.771 26.6433 85.057 27.5793 85.057C28.81 85.057 29.7893 84.5803 30.5173 83.627C31.2626 82.6737 31.6353 81.3477 31.6353 79.649C31.6353 78.505 31.4446 77.4563 31.0633 76.503C30.682 75.5497 30.1273 74.7957 29.3993 74.241C28.6713 73.669 27.8046 73.383 26.7993 73.383C25.534 73.383 24.5546 73.8337 23.8613 74.735C23.168 75.6363 22.8213 76.9103 22.8213 78.557ZM49.711 73.123C49.7457 73.123 49.763 73.175 49.763 73.279C49.763 73.383 49.7457 73.435 49.711 73.435C49.2083 73.435 48.827 73.487 48.567 73.591C48.3243 73.6777 48.151 73.851 48.047 74.111C47.9603 74.3537 47.917 74.7263 47.917 75.229V83.185C47.917 83.705 47.9603 84.095 48.047 84.355C48.1337 84.5977 48.2897 84.7623 48.515 84.849C48.7577 84.9357 49.1303 84.979 49.633 84.979C49.685 84.979 49.711 85.031 49.711 85.135C49.711 85.239 49.685 85.291 49.633 85.291L47.943 85.265L46.513 85.291C46.305 85.291 46.175 85.265 46.123 85.213C46.071 85.161 46.045 85.0223 46.045 84.797V83.289C45.2997 84.0863 44.5283 84.6757 43.731 85.057C42.9337 85.421 42.0843 85.603 41.183 85.603C39.9523 85.603 38.9297 85.2823 38.115 84.641C37.3177 83.9823 36.919 83.055 36.919 81.859V75.229C36.919 74.709 36.8843 74.3277 36.815 74.085C36.7457 73.8423 36.6157 73.6777 36.425 73.591C36.2343 73.487 35.9397 73.435 35.541 73.435C35.5063 73.435 35.489 73.383 35.489 73.279C35.489 73.175 35.5063 73.123 35.541 73.123L36.555 73.149C37.1097 73.1837 37.5603 73.201 37.907 73.201C38.323 73.201 38.8603 73.1837 39.519 73.149L40.559 73.123C40.5937 73.123 40.611 73.175 40.611 73.279C40.611 73.383 40.5937 73.435 40.559 73.435C40.0563 73.435 39.6837 73.487 39.441 73.591C39.1983 73.695 39.0337 73.877 38.947 74.137C38.8603 74.3797 38.817 74.761 38.817 75.281V81.053C38.817 83.5837 39.8743 84.849 41.989 84.849C42.717 84.849 43.4017 84.6843 44.043 84.355C44.7017 84.0083 45.369 83.4537 46.045 82.691V75.281C46.045 74.761 46.0017 74.3797 45.915 74.137C45.8283 73.877 45.6637 73.695 45.421 73.591C45.1957 73.487 44.8317 73.435 44.329 73.435C44.2943 73.435 44.277 73.383 44.277 73.279C44.277 73.175 44.2943 73.123 44.329 73.123L45.499 73.149C46.1577 73.1837 46.6777 73.201 47.059 73.201C47.423 73.201 47.917 73.1837 48.541 73.149L49.711 73.123ZM55.4141 83.185C55.4141 83.705 55.4575 84.095 55.5441 84.355C55.6308 84.5977 55.7955 84.7623 56.0381 84.849C56.2981 84.9357 56.7055 84.979 57.2601 84.979C57.3121 84.979 57.3381 85.031 57.3381 85.135C57.3381 85.239 57.3121 85.291 57.2601 85.291C56.7575 85.291 56.3675 85.2823 56.0901 85.265L54.4261 85.239L52.8141 85.265C52.5195 85.2823 52.1121 85.291 51.5921 85.291C51.5575 85.291 51.5401 85.239 51.5401 85.135C51.5401 85.031 51.5575 84.979 51.5921 84.979C52.1468 84.979 52.5541 84.9357 52.8141 84.849C53.0741 84.7623 53.2475 84.5977 53.3341 84.355C53.4381 84.095 53.4901 83.705 53.4901 83.185V75.229C53.4901 74.709 53.4381 74.3277 53.3341 74.085C53.2475 73.8423 53.0741 73.6777 52.8141 73.591C52.5541 73.487 52.1468 73.435 51.5921 73.435C51.5575 73.435 51.5401 73.383 51.5401 73.279C51.5401 73.175 51.5575 73.123 51.5921 73.123L52.8141 73.149C53.4728 73.1837 54.0101 73.201 54.4261 73.201C54.8595 73.201 55.4228 73.1837 56.1161 73.149L57.2601 73.123C57.3121 73.123 57.3381 73.175 57.3381 73.279C57.3381 73.383 57.3121 73.435 57.2601 73.435C56.7228 73.435 56.3241 73.487 56.0641 73.591C55.8215 73.695 55.6481 73.877 55.5441 74.137C55.4575 74.3797 55.4141 74.761 55.4141 75.281V83.185ZM65.4215 85.395C64.9535 85.395 64.4162 85.369 63.8095 85.317C63.6015 85.2997 63.3415 85.2823 63.0295 85.265C62.7175 85.2477 62.3622 85.239 61.9635 85.239L60.3515 85.265C60.0568 85.2823 59.6495 85.291 59.1295 85.291C59.0948 85.291 59.0775 85.239 59.0775 85.135C59.0775 85.031 59.0948 84.979 59.1295 84.979C59.7015 84.979 60.1175 84.9357 60.3775 84.849C60.6375 84.7623 60.8108 84.5977 60.8975 84.355C60.9842 84.095 61.0275 83.705 61.0275 83.185V75.229C61.0275 74.709 60.9842 74.3277 60.8975 74.085C60.8108 73.8423 60.6375 73.6777 60.3775 73.591C60.1175 73.487 59.7188 73.435 59.1815 73.435C59.1295 73.435 59.1035 73.383 59.1035 73.279C59.1035 73.175 59.1295 73.123 59.1815 73.123L60.3515 73.149C61.0102 73.1837 61.5475 73.201 61.9635 73.201C62.5008 73.201 63.0382 73.175 63.5755 73.123C64.2688 73.0883 64.7888 73.071 65.1355 73.071C66.5915 73.071 67.8482 73.331 68.9055 73.851C69.9628 74.371 70.7688 75.0903 71.3235 76.009C71.8782 76.9277 72.1555 77.9677 72.1555 79.129C72.1555 80.325 71.8695 81.3997 71.2975 82.353C70.7255 83.3063 69.9282 84.0517 68.9055 84.589C67.8828 85.1263 66.7215 85.395 65.4215 85.395ZM65.1355 84.953C66.6435 84.953 67.8135 84.4763 68.6455 83.523C69.4948 82.5697 69.9195 81.2003 69.9195 79.415C69.9195 77.699 69.5035 76.2863 68.6715 75.177C67.8395 74.0503 66.5828 73.487 64.9015 73.487C64.1735 73.487 63.6622 73.617 63.3675 73.877C63.0728 74.137 62.9255 74.605 62.9255 75.281V82.899C62.9255 83.6443 63.0728 84.173 63.3675 84.485C63.6622 84.797 64.2515 84.953 65.1355 84.953ZM75.6748 85.577C75.2935 85.577 74.9815 85.4643 74.7388 85.239C74.5135 84.9963 74.4008 84.6843 74.4008 84.303C74.4008 83.9217 74.5135 83.627 74.7388 83.419C74.9642 83.1937 75.2762 83.081 75.6748 83.081C76.0735 83.081 76.3768 83.1937 76.5848 83.419C76.8102 83.627 76.9228 83.9217 76.9228 84.303C76.9228 84.7017 76.8102 85.0137 76.5848 85.239C76.3768 85.4643 76.0735 85.577 75.6748 85.577Z" fill="#3877FF"/>
<path d="M93.2139 85.051C93.2539 85.051 93.2739 85.091 93.2739 85.171C93.2739 85.251 93.2539 85.291 93.2139 85.291C92.8806 85.291 92.6206 85.2843 92.4339 85.271L91.3139 85.251L90.2139 85.271C90.0139 85.2843 89.7539 85.291 89.4339 85.291C89.4072 85.291 89.3939 85.251 89.3939 85.171C89.3939 85.091 89.4072 85.051 89.4339 85.051C89.9272 85.051 90.2539 84.9643 90.4139 84.791C90.5739 84.6043 90.6539 84.231 90.6539 83.671V80.591C90.6539 79.8177 90.5139 79.251 90.2339 78.891C89.9672 78.5177 89.5539 78.331 88.9939 78.331C88.6072 78.331 88.2206 78.431 87.8339 78.631C87.4472 78.831 87.1072 79.1043 86.8139 79.451V79.711V83.671C86.8139 84.231 86.8872 84.6043 87.0339 84.791C87.1939 84.9643 87.5206 85.051 88.0139 85.051C88.0539 85.051 88.0739 85.091 88.0739 85.171C88.0739 85.251 88.0539 85.291 88.0139 85.291C87.6939 85.291 87.4339 85.2843 87.2339 85.271L86.1339 85.251L85.0339 85.271C84.8339 85.2843 84.5739 85.291 84.2539 85.291C84.2139 85.291 84.1939 85.251 84.1939 85.171C84.1939 85.091 84.2139 85.051 84.2539 85.051C84.7339 85.051 85.0539 84.9643 85.2139 84.791C85.3739 84.6043 85.4539 84.231 85.4539 83.671V80.591C85.4539 79.8177 85.3206 79.251 85.0539 78.891C84.7872 78.5177 84.3739 78.331 83.8139 78.331C83.4406 78.331 83.0672 78.4243 82.6939 78.611C82.3206 78.7977 81.9806 79.0577 81.6739 79.391V83.671C81.6739 84.231 81.7472 84.6043 81.8939 84.791C82.0539 84.9643 82.3806 85.051 82.8739 85.051C82.9139 85.051 82.9339 85.091 82.9339 85.171C82.9339 85.251 82.9139 85.291 82.8739 85.291C82.5539 85.291 82.2939 85.2843 82.0939 85.271L80.9939 85.251L79.8739 85.271C79.6872 85.2843 79.4339 85.291 79.1139 85.291C79.0739 85.291 79.0539 85.251 79.0539 85.171C79.0539 85.091 79.0739 85.051 79.1139 85.051C79.5939 85.051 79.9072 84.9643 80.0539 84.791C80.2139 84.6043 80.2939 84.231 80.2939 83.671V79.771C80.2939 79.331 80.2406 79.0177 80.1339 78.831C80.0406 78.631 79.8739 78.531 79.6339 78.531C79.3806 78.531 79.0272 78.6243 78.5739 78.811H78.5339C78.4939 78.811 78.4606 78.7777 78.4339 78.711C78.4206 78.6443 78.4339 78.6043 78.4739 78.591L80.9539 77.411C80.9806 77.3977 81.0206 77.391 81.0739 77.391C81.2072 77.391 81.3339 77.5443 81.4539 77.851C81.5872 78.1443 81.6606 78.531 81.6739 79.011C82.5939 77.9043 83.5739 77.351 84.6139 77.351C85.2139 77.351 85.7006 77.5043 86.0739 77.811C86.4472 78.1043 86.6806 78.5377 86.7739 79.111C87.7472 77.9377 88.7606 77.351 89.8139 77.351C90.5206 77.351 91.0606 77.5577 91.4339 77.971C91.8206 78.3843 92.0139 78.9977 92.0139 79.811V83.671C92.0139 84.0577 92.0406 84.351 92.0939 84.551C92.1606 84.7377 92.2739 84.871 92.4339 84.951C92.6072 85.0177 92.8672 85.051 93.2139 85.051ZM96.3455 75.171C96.0388 75.171 95.7921 75.0843 95.6055 74.911C95.4321 74.7377 95.3455 74.4977 95.3455 74.191C95.3455 73.8977 95.4321 73.671 95.6055 73.511C95.7921 73.3377 96.0388 73.251 96.3455 73.251C96.6388 73.251 96.8655 73.3377 97.0255 73.511C97.1988 73.671 97.2855 73.8977 97.2855 74.191C97.2855 74.4977 97.1988 74.7377 97.0255 74.911C96.8655 75.0843 96.6388 75.171 96.3455 75.171ZM94.5855 85.291C94.5455 85.291 94.5255 85.251 94.5255 85.171C94.5255 85.091 94.5455 85.051 94.5855 85.051C95.0655 85.051 95.3855 84.9643 95.5455 84.791C95.7055 84.6043 95.7855 84.231 95.7855 83.671V79.991C95.7855 79.511 95.7388 79.171 95.6455 78.971C95.5521 78.7577 95.3855 78.651 95.1455 78.651C94.9188 78.651 94.6321 78.7377 94.2855 78.911H94.2655C94.2121 78.911 94.1721 78.8777 94.1455 78.811C94.1188 78.731 94.1321 78.6843 94.1855 78.671L96.9055 77.411L96.9855 77.391C97.0255 77.391 97.0655 77.411 97.1055 77.451C97.1588 77.491 97.1855 77.5377 97.1855 77.591C97.1855 77.6843 97.1788 77.951 97.1655 78.391C97.1521 78.831 97.1455 79.351 97.1455 79.951V83.671C97.1455 84.231 97.2188 84.6043 97.3655 84.791C97.5255 84.9643 97.8521 85.051 98.3455 85.051C98.3855 85.051 98.4055 85.091 98.4055 85.171C98.4055 85.251 98.3855 85.291 98.3455 85.291C98.0255 85.291 97.7655 85.2843 97.5655 85.271L96.4655 85.251L95.3655 85.271C95.1655 85.2843 94.9055 85.291 94.5855 85.291ZM108.996 85.051C109.036 85.051 109.056 85.091 109.056 85.171C109.056 85.251 109.036 85.291 108.996 85.291C108.676 85.291 108.416 85.2843 108.216 85.271L107.116 85.251L106.016 85.271C105.816 85.2843 105.556 85.291 105.236 85.291C105.196 85.291 105.176 85.251 105.176 85.171C105.176 85.091 105.196 85.051 105.236 85.051C105.716 85.051 106.029 84.9643 106.176 84.791C106.336 84.6043 106.416 84.231 106.416 83.671V80.551C106.416 79.7777 106.276 79.211 105.996 78.851C105.716 78.491 105.269 78.311 104.656 78.311C104.283 78.311 103.896 78.4043 103.496 78.591C103.096 78.7777 102.736 79.0377 102.416 79.371V83.671C102.416 84.231 102.489 84.6043 102.636 84.791C102.796 84.9643 103.123 85.051 103.616 85.051C103.656 85.051 103.676 85.091 103.676 85.171C103.676 85.251 103.656 85.291 103.616 85.291C103.296 85.291 103.036 85.2843 102.836 85.271L101.736 85.251L100.616 85.271C100.429 85.2843 100.176 85.291 99.8561 85.291C99.8161 85.291 99.7961 85.251 99.7961 85.171C99.7961 85.091 99.8161 85.051 99.8561 85.051C100.336 85.051 100.649 84.9643 100.796 84.791C100.956 84.6043 101.036 84.231 101.036 83.671V79.771C101.036 79.331 100.983 79.0177 100.876 78.831C100.783 78.631 100.616 78.531 100.376 78.531C100.123 78.531 99.7694 78.6243 99.3161 78.811H99.2761C99.2361 78.811 99.2028 78.7777 99.1761 78.711C99.1628 78.6443 99.1761 78.6043 99.2161 78.591L101.696 77.411C101.723 77.3977 101.763 77.391 101.816 77.391C101.949 77.391 102.076 77.5443 102.196 77.851C102.329 78.1443 102.403 78.531 102.416 79.011C103.389 77.8777 104.409 77.311 105.476 77.311C106.209 77.311 106.776 77.531 107.176 77.971C107.589 78.3977 107.796 78.9977 107.796 79.771V83.671C107.796 84.231 107.869 84.6043 108.016 84.791C108.176 84.9643 108.503 85.051 108.996 85.051ZM116.807 84.111C116.847 84.111 116.88 84.1377 116.907 84.191C116.947 84.231 116.953 84.271 116.927 84.311C116.46 84.7377 115.98 85.051 115.487 85.251C115.007 85.4377 114.487 85.531 113.927 85.531C113.127 85.531 112.433 85.3577 111.847 85.011C111.273 84.651 110.833 84.1777 110.527 83.591C110.233 83.0043 110.087 82.371 110.087 81.691C110.087 80.9043 110.273 80.1843 110.647 79.531C111.033 78.8643 111.56 78.3443 112.227 77.971C112.907 77.5843 113.653 77.391 114.467 77.391C115.213 77.391 115.793 77.571 116.207 77.931C116.62 78.2777 116.827 78.7577 116.827 79.371C116.827 79.7043 116.753 79.871 116.607 79.871H115.647L111.707 79.911C111.653 80.1777 111.627 80.5043 111.627 80.891C111.627 82.0377 111.9 82.9643 112.447 83.671C113.007 84.3777 113.773 84.731 114.747 84.731C115.52 84.731 116.2 84.5243 116.787 84.111H116.807ZM113.767 77.791C113.273 77.791 112.853 77.951 112.507 78.271C112.16 78.5777 111.913 79.0177 111.767 79.591L115.207 79.511C115.193 78.9777 115.06 78.5577 114.807 78.251C114.553 77.9443 114.207 77.791 113.767 77.791ZM123.269 77.391C123.576 77.391 123.863 77.4843 124.129 77.671C124.396 77.8443 124.529 78.0577 124.529 78.311C124.529 78.511 124.463 78.6843 124.329 78.831C124.196 78.9643 124.016 79.031 123.789 79.031C123.656 79.031 123.543 79.011 123.449 78.971C123.356 78.9177 123.276 78.8643 123.209 78.811C123.143 78.7443 123.096 78.7043 123.069 78.691C122.963 78.5843 122.856 78.5043 122.749 78.451C122.656 78.3843 122.536 78.351 122.389 78.351C122.229 78.351 122.056 78.4177 121.869 78.551C121.683 78.671 121.403 78.9443 121.029 79.371V83.671C121.029 84.0577 121.076 84.351 121.169 84.551C121.276 84.7377 121.463 84.871 121.729 84.951C121.996 85.0177 122.396 85.051 122.929 85.051C122.969 85.051 122.989 85.091 122.989 85.171C122.989 85.251 122.969 85.291 122.929 85.291C122.489 85.291 122.136 85.2843 121.869 85.271L120.349 85.251L119.229 85.271C119.043 85.2843 118.789 85.291 118.469 85.291C118.429 85.291 118.409 85.251 118.409 85.171C118.409 85.091 118.429 85.051 118.469 85.051C118.949 85.051 119.263 84.9643 119.409 84.791C119.569 84.6043 119.649 84.231 119.649 83.671V79.771C119.649 79.331 119.596 79.0177 119.489 78.831C119.396 78.631 119.229 78.531 118.989 78.531C118.736 78.531 118.383 78.6243 117.929 78.811H117.889C117.849 78.811 117.816 78.7777 117.789 78.711C117.776 78.6443 117.789 78.6043 117.829 78.591L120.309 77.411C120.336 77.3977 120.376 77.391 120.429 77.391C120.563 77.391 120.689 77.5377 120.809 77.831C120.943 78.1243 121.016 78.511 121.029 78.991C121.576 78.3777 122.009 77.9577 122.329 77.731C122.663 77.5043 122.976 77.391 123.269 77.391ZM127.112 78.711C127.112 79.151 127.259 79.511 127.552 79.791C127.859 80.071 128.292 80.3577 128.852 80.651C129.332 80.9043 129.699 81.1243 129.952 81.311C130.219 81.4843 130.446 81.711 130.632 81.991C130.819 82.271 130.912 82.6177 130.912 83.031C130.912 83.711 130.652 84.2977 130.132 84.791C129.626 85.271 128.926 85.511 128.032 85.511C127.339 85.511 126.686 85.3177 126.072 84.931C125.992 84.851 125.952 84.771 125.952 84.691L125.912 82.991C125.912 82.951 125.946 82.931 126.012 82.931C126.092 82.9177 126.139 82.931 126.152 82.971C126.392 83.6377 126.726 84.1643 127.152 84.551C127.592 84.9377 128.079 85.131 128.612 85.131C128.986 85.131 129.272 85.0377 129.472 84.851C129.686 84.6643 129.792 84.391 129.792 84.031C129.792 83.6577 129.712 83.3443 129.552 83.091C129.392 82.8243 129.192 82.6177 128.952 82.471C128.726 82.311 128.412 82.1243 128.012 81.911C127.572 81.6977 127.219 81.5043 126.952 81.331C126.699 81.1577 126.479 80.931 126.292 80.651C126.119 80.371 126.032 80.0177 126.032 79.591C126.032 78.8443 126.306 78.2843 126.852 77.911C127.399 77.5243 128.052 77.331 128.812 77.331C129.332 77.331 129.839 77.431 130.332 77.631C130.452 77.671 130.512 77.7443 130.512 77.851C130.512 78.1443 130.506 78.371 130.492 78.531L130.472 79.431C130.472 79.4577 130.432 79.471 130.352 79.471C130.272 79.471 130.232 79.4577 130.232 79.431C130.232 79.1643 130.126 78.8977 129.912 78.631C129.699 78.3643 129.426 78.151 129.092 77.991C128.772 77.8177 128.446 77.731 128.112 77.731C127.806 77.731 127.559 77.811 127.372 77.971C127.199 78.1177 127.112 78.3643 127.112 78.711Z" fill="#85858A"/>
<path d="M34.5001 36.7909C34.5001 28.0477 37.4495 20.9973 41.4604 16.9813C45.7527 12.6832 49.9994 10.8243 55.5001 9.7908C59.2714 9.08223 66.5001 8.79129 66.5001 8.79129L35.0597 42.8462C35.0597 42.8462 34.5001 39.2909 34.5001 36.7909Z" fill="#3877FF"/>
<path d="M72.5667 8.39885L84.2752 7.85184L44.7769 52.0844C40.2443 49.0627 40.6109 49.1232 38.2298 46.0409L72.5667 8.39885Z" fill="#3877FF"/>
<path d="M91.6894 6.14643C96.3559 20.3926 97.1024 30.4168 94.6656 39.4085L72.4508 28.7279L91.6894 6.14643Z" fill="#3877FF"/>
<path d="M67.9108 32.8657L92.4106 44.1617C93.7421 44.1728 87.5414 55.8339 80.5002 58.7911C68.9214 63.6541 59.4765 63.0755 48.7525 54.7821L67.9108 32.8657Z" fill="#3877FF"/>
</svg>
