<svg width="45" height="45" viewBox="0 0 45 45" fill="none" xmlns="http://www.w3.org/2000/svg">
<path d="M1.47949 3.80249V30.2162C1.47949 30.6824 1.66469 31.1295 1.99434 31.4591C2.324 31.7888 2.7711 31.974 3.2373 31.974H5.2732V2.04468H3.2373C2.7711 2.04468 2.324 2.22988 1.99434 2.55953C1.66469 2.88918 1.47949 3.33629 1.47949 3.80249Z" fill="white"/>
<path d="M41.5867 0.98999H3.41332C1.77354 0.98999 0.439453 2.28436 0.439453 3.87526V30.089C0.439453 31.6798 1.77354 32.9743 3.41332 32.9743H27.1195V31.9196H3.41332C2.35547 31.9196 1.49414 31.0984 1.49414 30.089V3.87526C1.49414 2.86593 2.35547 2.04468 3.41332 2.04468H41.5867C42.6445 2.04468 43.5059 2.86593 43.5059 3.87526V30.089C43.5059 31.0984 42.6445 31.9196 41.5867 31.9196H38.6261V32.9743H41.5867C43.2265 32.9743 44.5605 31.6799 44.5605 30.089V3.87526C44.5605 2.28436 43.2265 0.98999 41.5867 0.98999Z" fill="white"/>
<path d="M17.8698 16.8063V6.15399C17.8695 5.96758 17.7954 5.78885 17.6636 5.65704C17.5318 5.52522 17.353 5.45108 17.1666 5.45087H6.10059C5.91417 5.45108 5.73545 5.52522 5.60363 5.65704C5.47182 5.78885 5.39767 5.96758 5.39746 6.15399V16.8063C5.39767 16.9927 5.47182 17.1715 5.60363 17.3033C5.73545 17.4351 5.91417 17.5092 6.10059 17.5095H17.1666C17.353 17.5092 17.5318 17.4351 17.6636 17.3033C17.7954 17.1715 17.8695 16.9927 17.8698 16.8063ZM16.8151 16.4548H6.45215V6.50555H16.8151V16.4548Z" fill="white"/>
<path d="M20.6993 8.71198H20.7035L37.6202 8.58014C37.76 8.57961 37.8939 8.52353 37.9925 8.42426C38.091 8.32498 38.146 8.19064 38.1455 8.05078C38.145 7.91092 38.0889 7.777 37.9896 7.67848C37.8903 7.57996 37.756 7.52492 37.6161 7.52546H37.6119L20.6952 7.65729C20.5554 7.65783 20.4215 7.7139 20.323 7.81318C20.2244 7.91245 20.1694 8.0468 20.1699 8.18666C20.1705 8.32652 20.2265 8.46044 20.3258 8.55895C20.4251 8.65747 20.5594 8.71251 20.6993 8.71198Z" fill="white"/>
<path d="M38.162 14.5588C38.161 14.4197 38.1049 14.2866 38.0061 14.1885C37.9074 14.0905 37.7738 14.0355 37.6347 14.0355H37.6306L20.7138 14.1674C20.5739 14.1679 20.44 14.224 20.3415 14.3232C20.243 14.4225 20.1879 14.5569 20.1885 14.6967C20.189 14.8366 20.2451 14.9705 20.3444 15.069C20.4436 15.1675 20.578 15.2226 20.7178 15.222H20.722L37.6387 15.0902C37.708 15.0897 37.7764 15.0755 37.8402 15.0485C37.904 15.0215 37.9618 14.9822 38.0104 14.9329C38.059 14.8836 38.0974 14.8251 38.1234 14.7609C38.1494 14.6968 38.1626 14.6281 38.162 14.5588Z" fill="white"/>
<path d="M6.58459 22.1753H6.58898L22.1768 22.0493C22.2461 22.0488 22.3145 22.0345 22.3783 22.0075C22.4421 21.9805 22.4999 21.9411 22.5484 21.8918C22.597 21.8424 22.6353 21.7839 22.6613 21.7197C22.6873 21.6555 22.7004 21.5868 22.6998 21.5176C22.6992 21.4483 22.685 21.3799 22.658 21.3161C22.6309 21.2524 22.5916 21.1946 22.5422 21.146C22.4928 21.0974 22.4344 21.0591 22.3702 21.0331C22.306 21.0071 22.2373 20.9941 22.168 20.9946L6.58046 21.1206C6.4406 21.1211 6.30668 21.1772 6.20817 21.2765C6.10967 21.3758 6.05463 21.5101 6.05518 21.65C6.05573 21.7899 6.11181 21.9238 6.2111 22.0223C6.31038 22.1208 6.44473 22.1758 6.58459 22.1753Z" fill="white"/>
<path d="M6.60314 28.685H6.60754L22.1955 28.5591C22.3353 28.5585 22.4692 28.5024 22.5677 28.4031C22.6662 28.3039 22.7213 28.1695 22.7207 28.0296C22.7201 27.8898 22.664 27.7559 22.5648 27.6574C22.4655 27.5589 22.3311 27.5038 22.1912 27.5044H22.1869L6.59901 27.6303C6.45915 27.6309 6.32524 27.687 6.22673 27.7863C6.12822 27.8855 6.07319 28.0199 6.07373 28.1598C6.07428 28.2996 6.13037 28.4335 6.22965 28.532C6.32893 28.6306 6.46328 28.6856 6.60314 28.685Z" fill="white"/>
<path d="M32.5996 30.0285C32.6357 30.0294 32.6717 30.0298 32.7076 30.0298C35.0672 30.0298 37.0156 28.2001 37.074 25.9038C37.0877 25.3568 36.9927 24.8126 36.7945 24.3026C36.5962 23.7927 36.2986 23.3272 35.919 22.9331C35.5172 22.5117 35.0357 22.1743 34.5025 21.9404C33.9692 21.7066 33.3948 21.5809 32.8126 21.5708C30.4068 21.515 28.3975 23.3643 28.3382 25.6955C28.3245 26.2425 28.4196 26.7867 28.6178 27.2967C28.8161 27.8066 29.1136 28.2721 29.4932 28.6662C29.895 29.0876 30.3765 29.4251 30.9098 29.6589C31.443 29.8928 32.0174 30.0184 32.5996 30.0285ZM29.3925 25.7225C29.4365 23.9981 30.9144 22.6244 32.705 22.6244C32.7325 22.6244 32.7601 22.6244 32.7878 22.6254C33.2312 22.6326 33.6689 22.7277 34.0752 22.9053C34.4816 23.083 34.8487 23.3395 35.1552 23.6601C35.4389 23.954 35.6613 24.3013 35.8097 24.6818C35.9581 25.0624 36.0295 25.4686 36.0197 25.8769C35.9751 27.6279 34.4533 29.0184 32.6245 28.974C32.181 28.9668 31.7434 28.8717 31.337 28.694C30.9306 28.5164 30.5635 28.2598 30.257 27.9392C29.9734 27.6453 29.7509 27.298 29.6025 26.9175C29.4541 26.537 29.3828 26.1308 29.3925 25.7225Z" fill="white"/>
<path d="M38.6002 30.7244C39.0864 30.6666 39.589 30.5606 39.8648 30.1339C40.1834 29.641 39.9851 29.0482 39.8101 28.5255C39.7346 28.2997 39.608 27.9216 39.6451 27.8025C39.6802 27.6944 39.9879 27.4629 40.1717 27.3246C40.6204 26.987 41.1289 26.6045 41.1442 26.0015C41.1595 25.3985 40.671 24.9908 40.2399 24.6312C40.0636 24.4842 39.7687 24.2381 39.7389 24.1288C39.7081 24.008 39.8532 23.6372 39.9405 23.4157C40.1417 22.9024 40.3699 22.3207 40.0764 21.8126C39.783 21.3045 39.1635 21.2086 38.6175 21.1248C38.3831 21.0888 37.9907 21.0286 37.9055 20.9436C37.8234 20.862 37.7626 20.4735 37.7263 20.2413C37.6407 19.6943 37.5437 19.0742 37.0325 18.7782C36.5321 18.4882 35.9538 18.7079 35.4436 18.902C35.2186 18.9875 34.8423 19.1306 34.7207 19.0968C34.6126 19.063 34.378 18.7602 34.2373 18.5792C33.8959 18.1398 33.5087 17.6406 32.912 17.6266C32.3148 17.616 31.9046 18.0924 31.5424 18.5153C31.3929 18.6897 31.1433 18.9816 31.0337 19.01C30.9098 19.0383 30.5408 18.8774 30.32 18.7815C29.819 18.5637 29.2516 18.317 28.7379 18.5826C28.2133 18.8537 28.0861 19.4682 27.9738 20.0105C27.9261 20.2408 27.8464 20.6263 27.7599 20.7042C27.6701 20.7851 27.2748 20.8262 27.0387 20.8508C26.4893 20.9078 25.8665 20.9725 25.5474 21.466C25.2284 21.9595 25.4271 22.5516 25.6021 23.0744C25.6776 23.3003 25.8042 23.6783 25.7671 23.7976C25.7319 23.9057 25.4243 24.1372 25.2404 24.2754C24.7917 24.613 24.2833 24.9955 24.2679 25.5986C24.2525 26.2017 24.7412 26.6093 25.1723 26.9687C25.3481 27.1158 25.6436 27.3619 25.6733 27.4712C25.7041 27.592 25.559 27.9628 25.4717 28.1843C25.2705 28.6976 25.0422 29.2793 25.3358 29.7874C25.6293 30.2955 26.2486 30.3914 26.7948 30.4752C26.8968 30.4909 27.0288 30.5112 27.1524 30.5361C27.1205 30.5824 27.0963 30.6336 27.0806 30.6876L23.7689 42.1207C23.7404 42.219 23.7411 42.3235 23.771 42.4214C23.8009 42.5192 23.8586 42.6063 23.9371 42.672C24.0156 42.7376 24.1115 42.779 24.2132 42.7911C24.3148 42.8032 24.4177 42.7854 24.5094 42.74L27.6085 41.2045L29.7843 43.82C29.8453 43.8933 29.925 43.9487 30.0149 43.9803C30.1049 44.012 30.2018 44.0186 30.2952 43.9995C30.3886 43.9804 30.4752 43.9364 30.5455 43.872C30.6159 43.8077 30.6676 43.7255 30.6949 43.6341L33.336 34.8179L35.3859 43.0972C35.4088 43.1897 35.4564 43.2743 35.5235 43.3419C35.5906 43.4096 35.6748 43.4578 35.7672 43.4814C35.8595 43.505 35.9565 43.5031 36.0479 43.476C36.1393 43.4488 36.2216 43.3975 36.2861 43.3273L38.593 40.8164L41.6103 42.4963C41.7033 42.548 41.8098 42.5703 41.9158 42.5604C42.0218 42.5504 42.1222 42.5087 42.204 42.4406C42.2858 42.3724 42.345 42.2812 42.374 42.1788C42.4029 42.0763 42.4002 41.9676 42.3662 41.8667L38.6002 30.7244ZM26.2508 29.2588C26.231 29.1352 26.3748 28.7687 26.453 28.5691C26.6287 28.1222 26.8095 27.6602 26.6946 27.2099C26.5828 26.772 26.2088 26.4601 25.8471 26.1585C25.6729 26.0132 25.3506 25.7444 25.3223 25.625C25.3564 25.507 25.6923 25.2545 25.8738 25.1179C26.2503 24.8347 26.6397 24.5417 26.7737 24.1097C26.9115 23.6658 26.7539 23.1949 26.6016 22.7394C26.5334 22.5354 26.4082 22.1609 26.4346 22.0388C26.5346 21.9627 26.9311 21.9215 27.1469 21.8992C27.6253 21.8495 28.1201 21.7981 28.4653 21.4871C28.8081 21.178 28.9089 20.6928 29.006 20.2237C29.0513 20.0052 29.1349 19.601 29.2183 19.5218C29.3388 19.5043 29.7017 19.6625 29.8991 19.7481C30.3453 19.9421 30.8069 20.1428 31.2677 20.0377C31.7137 19.936 32.0338 19.5621 32.3433 19.2005C32.4935 19.0247 32.7732 18.6982 32.8827 18.68C32.999 18.7038 33.2623 19.0431 33.4038 19.2254C33.6955 19.6011 33.9971 19.99 34.4376 20.1122C34.8927 20.2389 35.363 20.0602 35.8174 19.8873C36.0302 19.8065 36.3827 19.6728 36.504 19.6931C36.5872 19.7874 36.6497 20.1867 36.6836 20.4037C36.7576 20.8767 36.8341 21.3658 37.1614 21.6911C37.4906 22.0183 37.9818 22.0937 38.457 22.1667C38.6708 22.1995 39.0634 22.2598 39.1601 22.3402C39.1799 22.4638 39.0361 22.8303 38.9579 23.0299C38.7827 23.4767 38.6015 23.9389 38.7164 24.3891C38.8283 24.827 39.2022 25.1389 39.5639 25.4406C39.7381 25.5859 40.0604 25.8546 40.0886 25.974C40.0545 26.0919 39.7187 26.3445 39.5372 26.4811C39.1606 26.7644 38.7713 27.0573 38.6372 27.4893C38.4995 27.9332 38.657 28.4042 38.8094 28.8595C38.8776 29.0635 39.0028 29.4381 38.9764 29.5604C38.8763 29.6363 38.4799 29.6774 38.2641 29.6998C37.7857 29.7495 37.2909 29.8009 36.9457 30.1119C36.6029 30.4211 36.5022 30.9062 36.4051 31.3753C36.3598 31.5938 36.2761 31.998 36.1928 32.0772C36.0722 32.0948 35.7094 31.9366 35.512 31.851C35.0657 31.6569 34.604 31.4564 34.1433 31.5609C33.6991 31.6622 33.3799 32.0334 33.0716 32.3936C33.0666 32.3973 33.062 32.4012 33.0571 32.405C33.0523 32.4089 33.0462 32.4138 33.0407 32.4186C33.0336 32.4245 33.0267 32.4308 33.0199 32.4374C33.0139 32.4432 33.0081 32.4491 33.0023 32.455C32.9965 32.4608 32.9911 32.4668 32.9859 32.473C32.9806 32.4791 32.9738 32.4872 32.9683 32.4946C32.9637 32.5005 32.9595 32.5064 32.955 32.5122C32.9494 32.52 32.944 32.5281 32.9388 32.5362C32.9348 32.5427 32.9309 32.5491 32.9272 32.5557C32.9245 32.5602 32.9216 32.5645 32.9192 32.5691C32.7754 32.7309 32.6077 32.905 32.5286 32.9181C32.4124 32.8944 32.149 32.5551 32.0075 32.3732C31.7158 31.9975 31.4141 31.609 30.9737 31.4865C30.8682 31.4575 30.7592 31.4431 30.6497 31.4437C30.2976 31.4437 29.941 31.5792 29.5934 31.7113C29.3806 31.7921 29.0283 31.9259 28.9067 31.9055C28.8236 31.8112 28.7611 31.412 28.7272 31.1949C28.6532 30.7218 28.5767 30.2328 28.2494 29.9075C27.9202 29.5804 27.4289 29.5049 26.9538 29.432C26.7404 29.3999 26.3475 29.3395 26.2508 29.2588ZM29.966 42.3897L28.1523 40.21C28.0765 40.1188 27.9721 40.0559 27.8561 40.0313C27.74 40.0068 27.6191 40.0221 27.5128 40.0747L25.1148 41.2629L27.8053 31.9743C27.8993 32.3193 28.0568 32.6352 28.3793 32.822C28.8796 33.112 29.4581 32.8923 29.9684 32.6981C30.1933 32.6127 30.5695 32.4696 30.6911 32.5035C30.7992 32.5372 31.0339 32.84 31.1745 33.021C31.5137 33.458 31.8981 33.9526 32.4881 33.9727L29.966 42.3897ZM38.7427 39.6924C38.6392 39.6347 38.5192 39.6136 38.4023 39.6325C38.2853 39.6513 38.178 39.709 38.0979 39.7963L36.1738 41.8904L33.9658 32.973C34.1103 32.8071 34.2899 32.6126 34.3782 32.5899C34.5013 32.5616 34.8711 32.7224 35.092 32.8185C35.593 33.0363 36.1603 33.2831 36.674 33.0174C37.1986 32.7462 37.3258 32.1317 37.4381 31.5894C37.4736 31.3947 37.5227 31.2028 37.5849 31.015L40.9295 40.9103L38.7427 39.6924Z" fill="white"/>
</svg>
