<svg width="16" height="16" viewBox="0 0 16 16" fill="none" xmlns="http://www.w3.org/2000/svg">
<path d="M8.00016 14.6667C4.31816 14.6667 1.3335 11.682 1.3335 8C1.3335 4.318 4.31816 1.33333 8.00016 1.33333C11.6822 1.33333 14.6668 4.318 14.6668 8C14.6668 11.682 11.6822 14.6667 8.00016 14.6667ZM6.70016 7.33333C6.75792 7.04978 6.8885 6.78615 7.07906 6.56838C7.26963 6.35061 7.51361 6.18622 7.787 6.09137C8.06039 5.99651 8.35376 5.97448 8.63825 6.02742C8.92274 6.08037 9.18854 6.20647 9.4095 6.39333L10.5435 5.63799C10.1541 5.21384 9.65085 4.9107 9.09385 4.76478C8.53684 4.61885 7.94961 4.63631 7.40226 4.81506C6.85491 4.99381 6.37056 5.3263 6.00704 5.77284C5.64351 6.21938 5.41617 6.7611 5.35216 7.33333H4.66683V8.66666H5.3515C5.4154 9.23904 5.64271 9.78092 6.00627 10.2276C6.36984 10.6743 6.85429 11.0068 7.40177 11.1856C7.94926 11.3644 8.53663 11.3818 9.09373 11.2357C9.65084 11.0897 10.1541 10.7864 10.5435 10.362L9.4095 9.606C9.18858 9.79285 8.92283 9.91897 8.63839 9.97195C8.35394 10.0249 8.0606 10.003 7.78723 9.90818C7.51385 9.8134 7.26986 9.64908 7.07926 9.4314C6.88866 9.21371 6.75801 8.95016 6.70016 8.66666L10.0002 8.66733V7.334H6.70016V7.33333Z" fill="#3877FF"/>
</svg>
