<?xml version="1.0" encoding="utf-8"?>
<!-- Generator: Adobe Illustrator 22.1.0, SVG Export Plug-In . SVG Version: 6.00 Build 0)  -->
<svg version="1.1" id="Слой_1" xmlns="http://www.w3.org/2000/svg" xmlns:xlink="http://www.w3.org/1999/xlink" x="0px" y="0px"
	 viewBox="0 0 1280 1024" style="enable-background:new 0 0 1280 1024;" xml:space="preserve">
<style type="text/css">
	.st0{fill:#FFFFFF;}
	.st1{fill:#123157;}
	.st2{opacity:0.79;fill:#3877FF;}
	.st3{opacity:0.6;fill:#3877FF;}
	.st4{fill:#093789;}
	.st5{opacity:0.92;fill:#3877FF;}
</style>
<rect width="1280" height="1024"/>
<rect class="st0" width="1280" height="1024"/>
<g>
	<g>
		<g>
			<path class="st1" d="M585.6,403.4l-1.1-1.4c-1.2-1.5-2.4-3.1-3.6-4.6l0,0c-41.7-50.9-107.2-73.2-169.1-61.6
				c-23.3,4.4-46,13.5-66.8,27.7c-21.4,14.6-38.5,33-51.2,53.8c-5.4,8.8-9.9,18.1-13.6,27.6c0,0,0,0,0,0.1c0,0,0,0,0,0
				c-3,7.6-5.4,15.3-7.3,23.2l0,0c-0.1,0.4-0.2,0.7-0.3,1.1c0,0.1,0,0.2-0.1,0.2c-10.7,46.3-2.7,96.8,26.2,139.1
				c10.1,14.8,22,27.5,35.3,38.2c9,7.3,18.7,13.5,28.8,18.8c49.8,25.9,110.5,27.3,162.5,0.4c0.1,0,0.2-0.1,0.3-0.1
				c6.3-3.2,12.4-6.9,18.3-11c0.6-0.4,1.1-0.8,1.7-1.2c22.5-15.7,40.2-35.8,52.8-58.3c0,0,0,0,0,0c14.5-26,22.2-55.3,22.5-84.8
				c0.1-11.4-0.9-22.8-3-34.1c-0.6-3.4-1.4-6.9-2.2-10.3c-4.9-19.7-13.4-38.8-25.4-56.5C588.7,407.6,587.2,405.5,585.6,403.4z
				 M516.3,597.6c-12.5,8.5-25.9,14.5-39.7,18.2c-23.1,6.1-47.3,5.6-69.8-1.1c-15-4.5-29.2-11.6-41.9-21.4
				c-10.5-8.1-19.9-18-27.8-29.5c-17.5-25.6-24.5-55.4-21.9-84.1c2.9-33.1,18.6-64.9,45.5-87.4c3.2-2.7,6.7-5.3,10.2-7.7
				c47.1-32.1,107.9-28.8,150.9,4c10.7,8.2,20.3,18.1,28.3,29.8c16.4,24,23.5,51.5,22.3,78.4c-0.6,12.4-2.9,24.6-6.9,36.3
				C556.8,558.5,540.1,581.3,516.3,597.6z"/>
		</g>
	</g>
	<path class="st2" d="M620.9,510.6c-0.2,29.6-7.9,58.8-22.5,84.8c0,0,0,0,0,0c-12.6,22.5-30.3,42.6-52.8,58.3
		c-6.6,4.4-13.3,8.5-20,12.1c-0.1,0-0.2,0.1-0.3,0.1c-52,26.9-112.7,25.5-162.5-0.4c5.2-8.5,14.7-22.2,30.3-38.1
		c4.1-4.2,8.7-8.5,13.6-12.9c8.4-7.4,18.1-15.1,29.2-22.8c1.3-0.9,2.6-1.8,3.9-2.6c24.3-16.2,55.1-32.2,93.7-45.1
		c11.8-4,22.4-7.6,31.9-11c11.2-4,20.8-7.7,29.1-11C605.7,517.7,614.3,513.9,620.9,510.6z"/>
	<path class="st3" d="M598.5,595.5C598.5,595.5,598.5,595.5,598.5,595.5c-12.6,22.5-30.3,42.6-52.8,58.3c-0.6,0.4-1.1,0.8-1.7,1.2
		c-6,4.1-12.1,7.7-18.3,11c-0.1,0-0.2,0.1-0.3,0.1c-52,26.9-112.7,25.5-162.5-0.4c-10.1-5.3-19.8-11.6-28.8-18.8
		c-13.3-10.6-25.2-23.4-35.3-38.2c-28.9-42.4-36.9-92.8-26.2-139.1c0-0.1,0-0.2,0.1-0.2c0,0,0.1-0.1,0.2-0.1
		c1.7-0.9,13.3-5.7,42.3,10.5c20.7,11.6,50.2,33.9,91.4,76c4.2,4.3,8.5,8.8,13,13.5c7,7.4,13.8,14.1,20.4,20
		c12.9,11.5,25.2,20.2,36.6,26.6C555.2,659.5,598.5,595.5,598.5,595.5z"/>
	<path class="st4" d="M272.7,469.3c0.1-0.4,0.2-0.8,0.3-1.1c0,0.4-0.1,0.8-0.1,1c0,0.3,0,0.5,0,0.5l-0.3-0.1
		C272.6,469.5,272.6,469.4,272.7,469.3z"/>
	<path class="st5" d="M580.9,397.4c-21.1-3.8-40.8-6.7-59.1-8.8c-73.1-8.6-124.7-5.3-161.2,3.8c-49.4,12.2-71,34.9-80.5,52.6
		c3.7-9.5,8.3-18.8,13.6-27.6c12.6-20.7,29.8-39.2,51.2-53.8c20.8-14.2,43.5-23.3,66.8-27.7C473.8,324.2,539.3,346.4,580.9,397.4z"
		/>
</g>
<g>
	<path d="M683.5,477.8V387h16.6v77.8h40.2v13H683.5z"/>
	<path d="M763.5,403.5c-3,0-5.5-0.9-7.5-2.7c-1.9-1.8-2.9-4.1-2.9-6.9c0-2.8,1-5,2.9-6.8c1.9-1.8,4.4-2.7,7.5-2.7
		c3,0,5.5,0.9,7.5,2.7c1.9,1.8,2.9,4,2.9,6.8c0,2.8-1,5.1-2.9,6.9C769,402.6,766.5,403.5,763.5,403.5z M755.2,477.8v-64.3h16.6v64.3
		H755.2z"/>
	<path d="M840.3,506.3v-37.7c-2.1,2.9-4.8,5.4-8.2,7.5c-3.4,2.2-7.8,3.2-13.3,3.2c-6.1,0-11.5-1.5-16.2-4.4
		c-4.8-2.9-8.5-7-11.3-12.1c-2.8-5.1-4.2-10.9-4.2-17.4s1.4-12.3,4.2-17.3c2.8-5.1,6.5-9,11.3-11.9c4.8-2.9,10.2-4.3,16.2-4.3
		c4.8,0,9.1,0.9,12.7,2.7s6.6,4.4,8.8,7.7l1.8-8.8h14.8v92.9H840.3z M822.3,464.8c5.4,0,9.7-1.8,13.2-5.4c3.4-3.6,5.1-8.2,5.1-13.8
		c0-5.6-1.7-10.2-5.1-13.8c-3.4-3.6-7.8-5.4-13.2-5.4c-5.3,0-9.6,1.8-13.1,5.3c-3.5,3.5-5.2,8.1-5.2,13.8c0,5.6,1.7,10.2,5.2,13.9
		C812.6,463,817,464.8,822.3,464.8z"/>
	<path d="M897.9,479.3c-8,0-14.2-2.5-18.6-7.5c-4.4-5-6.6-12.4-6.6-22.1v-36.3h16.5v34.8c0,5.5,1.1,9.8,3.4,12.7
		c2.2,2.9,5.8,4.4,10.6,4.4c4.6,0,8.4-1.6,11.4-4.9c3-3.3,4.5-7.9,4.5-13.8v-33.2h16.6v64.3H921l-1.3-10.9c-2,3.8-4.9,6.8-8.6,9.1
		C907.3,478.2,902.9,479.3,897.9,479.3z"/>
	<path d="M961.6,403.5c-3,0-5.5-0.9-7.5-2.7c-1.9-1.8-2.9-4.1-2.9-6.9c0-2.8,1-5,2.9-6.8c1.9-1.8,4.4-2.7,7.5-2.7
		c3,0,5.5,0.9,7.5,2.7c1.9,1.8,2.9,4,2.9,6.8c0,2.8-1,5.1-2.9,6.9C967.1,402.6,964.6,403.5,961.6,403.5z M953.3,477.8v-64.3h16.6
		v64.3H953.3z"/>
	<path d="M1016.9,479.3c-6.1,0-11.5-1.5-16.2-4.4c-4.8-2.9-8.5-7-11.3-12.1c-2.8-5.1-4.2-10.9-4.2-17.4s1.4-12.3,4.2-17.3
		c2.8-5.1,6.5-9,11.3-11.9c4.8-2.9,10.2-4.3,16.2-4.3c4.8,0,9.1,0.9,12.7,2.7s6.6,4.4,8.8,7.7v-37.9h16.6v93.4h-14.8l-1.8-9.2
		c-2.1,2.9-4.8,5.4-8.2,7.5C1026.7,478.3,1022.3,479.3,1016.9,479.3z M1020.4,464.8c5.4,0,9.7-1.8,13.2-5.4
		c3.4-3.6,5.1-8.2,5.1-13.8c0-5.6-1.7-10.2-5.1-13.8c-3.4-3.6-7.8-5.4-13.2-5.4c-5.3,0-9.6,1.8-13.1,5.3c-3.5,3.5-5.2,8.1-5.2,13.8
		c0,5.6,1.7,10.2,5.2,13.9C1010.7,463,1015.1,464.8,1020.4,464.8z"/>
</g>
<g>
	<path d="M683.5,615.4v-90.8h19.7l28.9,57.6l28.5-57.6h19.7v90.8h-16.6v-62.7l-25.3,49.7h-13.1l-25.3-49.7v62.7H683.5z"/>
	<path d="M806.6,541.1c-3,0-5.5-0.9-7.5-2.7c-1.9-1.8-2.9-4.1-2.9-6.9c0-2.8,1-5,2.9-6.8c1.9-1.8,4.4-2.7,7.5-2.7
		c3,0,5.5,0.9,7.5,2.7c1.9,1.8,2.9,4,2.9,6.8c0,2.8-1,5.1-2.9,6.9C812.1,540.2,809.6,541.1,806.6,541.1z M798.3,615.4v-64.3h16.6
		v64.3H798.3z"/>
	<path d="M832.3,615.4v-64.3h14.7l1.3,10.9c2-3.8,4.9-6.8,8.6-9.1c3.8-2.2,8.2-3.4,13.3-3.4c8,0,14.1,2.5,18.5,7.5
		c4.4,5,6.6,12.4,6.6,22.1v36.3h-16.6v-34.8c0-5.5-1.1-9.8-3.4-12.7c-2.3-2.9-5.8-4.4-10.5-4.4c-4.7,0-8.5,1.6-11.5,4.9
		c-3,3.3-4.5,7.9-4.5,13.8v33.2H832.3z"/>
	<path d="M942.4,617c-6.5,0-12.2-1.4-17.3-4.2c-5-2.8-9-6.7-11.8-11.7c-2.9-5-4.3-10.8-4.3-17.4c0-6.7,1.4-12.6,4.2-17.8
		c2.8-5.2,6.7-9.2,11.7-12.1c5-2.9,10.8-4.3,17.6-4.3c6.3,0,11.9,1.4,16.7,4.2c4.8,2.8,8.6,6.6,11.3,11.4c2.7,4.8,4.1,10.1,4.1,16
		c0,1,0,1.9-0.1,3c0,1-0.1,2.1-0.2,3.2h-48.9c0.3,5,2.1,9,5.3,11.8c3.2,2.9,7,4.3,11.5,4.3c3.4,0,6.2-0.8,8.5-2.3
		c2.3-1.5,4-3.5,5.1-5.9h16.9c-1.2,4.1-3.2,7.8-6,11.1c-2.8,3.3-6.3,5.9-10.4,7.8C952.2,616,947.6,617,942.4,617z M942.5,563
		c-4.1,0-7.7,1.1-10.8,3.4c-3.1,2.3-5.1,5.8-6,10.4h32c-0.3-4.2-1.8-7.6-4.7-10.1C950.3,564.3,946.8,563,942.5,563z"/>
	<path d="M988.7,615.4v-64.3h14.8l1.6,12.1c2.3-4.2,5.5-7.5,9.5-9.9s8.8-3.7,14.2-3.7V567h-4.7c-3.6,0-6.9,0.6-9.7,1.7
		c-2.9,1.1-5.1,3.1-6.7,5.8c-1.6,2.8-2.4,6.6-2.4,11.5v29.3H988.7z"/>
	<path d="M1066.7,617c-5.7,0-10.7-0.9-15-2.8c-4.3-1.9-7.8-4.4-10.4-7.7c-2.6-3.3-4.2-7.1-4.7-11.4h16.7c0.5,2.5,1.9,4.7,4.2,6.4
		c2.3,1.8,5.3,2.7,8.9,2.7s6.3-0.7,8-2.2c1.7-1.5,2.5-3.2,2.5-5.1c0-2.8-1.2-4.6-3.6-5.6c-2.4-1-5.8-2-10.1-2.9
		c-2.8-0.6-5.6-1.3-8.4-2.2c-2.9-0.9-5.5-2-7.8-3.3c-2.4-1.3-4.3-3.1-5.8-5.2c-1.5-2.1-2.2-4.7-2.2-7.8c0-5.7,2.3-10.5,6.8-14.4
		s10.9-5.8,19.1-5.8c7.6,0,13.7,1.8,18.2,5.3c4.5,3.5,7.2,8.4,8.1,14.7h-15.7c-1-4.8-4.5-7.1-10.8-7.1c-3.1,0-5.5,0.6-7.2,1.8
		c-1.7,1.2-2.5,2.7-2.5,4.5c0,1.9,1.3,3.4,3.8,4.5c2.5,1.1,5.8,2.2,10,3.1c4.5,1,8.6,2.2,12.4,3.4c3.8,1.3,6.8,3.1,9,5.6
		c2.2,2.5,3.4,6,3.4,10.6c0.1,4-1,7.6-3.1,10.8c-2.2,3.2-5.3,5.7-9.3,7.5C1077,616.1,1072.2,617,1066.7,617z"/>
</g>
</svg>
