<?xml version="1.0" encoding="utf-8"?>
<!-- Generator: Adobe Illustrator 22.1.0, SVG Export Plug-In . SVG Version: 6.00 Build 0)  -->
<svg version="1.1" id="Слой_1" xmlns="http://www.w3.org/2000/svg" xmlns:xlink="http://www.w3.org/1999/xlink" x="0px" y="0px"
	 viewBox="0 0 1280 1024" style="enable-background:new 0 0 1280 1024;" xml:space="preserve">
<style type="text/css">
	.st0{fill:#FFFFFF;}
	.st1{fill:#123157;}
	.st2{opacity:0.79;fill:#3877FF;}
	.st3{opacity:0.6;fill:#3877FF;}
	.st4{fill:#093789;}
	.st5{opacity:0.92;fill:#3877FF;}
</style>
<rect width="1280" height="1024"/>
<g>
	<path d="M683.5,477.8V387h16.6v77.8h40.2v13H683.5z"/>
	<path d="M763.5,403.5c-3,0-5.5-0.9-7.5-2.7c-1.9-1.8-2.9-4.1-2.9-6.9c0-2.8,1-5,2.9-6.8c1.9-1.8,4.4-2.7,7.5-2.7
		c3,0,5.5,0.9,7.5,2.7c1.9,1.8,2.9,4,2.9,6.8c0,2.8-1,5.1-2.9,6.9C769,402.6,766.5,403.5,763.5,403.5z M755.2,477.8v-64.3h16.6v64.3
		H755.2z"/>
	<path d="M840.3,506.3v-37.7c-2.1,2.9-4.8,5.4-8.2,7.5c-3.4,2.2-7.8,3.2-13.3,3.2c-6.1,0-11.5-1.5-16.2-4.4
		c-4.8-2.9-8.5-7-11.3-12.1c-2.8-5.1-4.2-10.9-4.2-17.4s1.4-12.3,4.2-17.3c2.8-5.1,6.5-9,11.3-11.9c4.8-2.9,10.2-4.3,16.2-4.3
		c4.8,0,9.1,0.9,12.7,2.7s6.6,4.4,8.8,7.7l1.8-8.8h14.8v92.9H840.3z M822.3,464.8c5.4,0,9.7-1.8,13.2-5.4c3.4-3.6,5.1-8.2,5.1-13.8
		c0-5.6-1.7-10.2-5.1-13.8c-3.4-3.6-7.8-5.4-13.2-5.4c-5.3,0-9.6,1.8-13.1,5.3c-3.5,3.5-5.2,8.1-5.2,13.8c0,5.6,1.7,10.2,5.2,13.9
		C812.6,463,817,464.8,822.3,464.8z"/>
	<path d="M897.9,479.3c-8,0-14.2-2.5-18.6-7.5c-4.4-5-6.6-12.4-6.6-22.1v-36.3h16.5v34.8c0,5.5,1.1,9.8,3.4,12.7
		c2.2,2.9,5.8,4.4,10.6,4.4c4.6,0,8.4-1.6,11.4-4.9c3-3.3,4.5-7.9,4.5-13.8v-33.2h16.6v64.3H921l-1.3-10.9c-2,3.8-4.9,6.8-8.6,9.1
		C907.3,478.2,902.9,479.3,897.9,479.3z"/>
	<path d="M961.6,403.5c-3,0-5.5-0.9-7.5-2.7c-1.9-1.8-2.9-4.1-2.9-6.9c0-2.8,1-5,2.9-6.8c1.9-1.8,4.4-2.7,7.5-2.7
		c3,0,5.5,0.9,7.5,2.7c1.9,1.8,2.9,4,2.9,6.8c0,2.8-1,5.1-2.9,6.9C967.1,402.6,964.6,403.5,961.6,403.5z M953.3,477.8v-64.3h16.6
		v64.3H953.3z"/>
	<path d="M1016.9,479.3c-6.1,0-11.5-1.5-16.2-4.4c-4.8-2.9-8.5-7-11.3-12.1c-2.8-5.1-4.2-10.9-4.2-17.4s1.4-12.3,4.2-17.3
		c2.8-5.1,6.5-9,11.3-11.9c4.8-2.9,10.2-4.3,16.2-4.3c4.8,0,9.1,0.9,12.7,2.7s6.6,4.4,8.8,7.7v-37.9h16.6v93.4h-14.8l-1.8-9.2
		c-2.1,2.9-4.8,5.4-8.2,7.5C1026.7,478.3,1022.3,479.3,1016.9,479.3z M1020.4,464.8c5.4,0,9.7-1.8,13.2-5.4
		c3.4-3.6,5.1-8.2,5.1-13.8c0-5.6-1.7-10.2-5.1-13.8c-3.4-3.6-7.8-5.4-13.2-5.4c-5.3,0-9.6,1.8-13.1,5.3c-3.5,3.5-5.2,8.1-5.2,13.8
		c0,5.6,1.7,10.2,5.2,13.9C1010.7,463,1015.1,464.8,1020.4,464.8z"/>
</g>
<g>
	<path d="M683.5,615.4v-90.8h19.7l28.9,57.6l28.5-57.6h19.7v90.8h-16.6v-62.7l-25.3,49.7h-13.1l-25.3-49.7v62.7H683.5z"/>
	<path d="M806.6,541.1c-3,0-5.5-0.9-7.5-2.7c-1.9-1.8-2.9-4.1-2.9-6.9c0-2.8,1-5,2.9-6.8c1.9-1.8,4.4-2.7,7.5-2.7
		c3,0,5.5,0.9,7.5,2.7c1.9,1.8,2.9,4,2.9,6.8c0,2.8-1,5.1-2.9,6.9C812.1,540.2,809.6,541.1,806.6,541.1z M798.3,615.4v-64.3h16.6
		v64.3H798.3z"/>
	<path d="M832.3,615.4v-64.3h14.7l1.3,10.9c2-3.8,4.9-6.8,8.6-9.1c3.8-2.2,8.2-3.4,13.3-3.4c8,0,14.1,2.5,18.5,7.5
		c4.4,5,6.6,12.4,6.6,22.1v36.3h-16.6v-34.8c0-5.5-1.1-9.8-3.4-12.7c-2.3-2.9-5.8-4.4-10.5-4.4c-4.7,0-8.5,1.6-11.5,4.9
		c-3,3.3-4.5,7.9-4.5,13.8v33.2H832.3z"/>
	<path d="M942.4,617c-6.5,0-12.2-1.4-17.3-4.2c-5-2.8-9-6.7-11.8-11.7c-2.9-5-4.3-10.8-4.3-17.4c0-6.7,1.4-12.6,4.2-17.8
		c2.8-5.2,6.7-9.2,11.7-12.1c5-2.9,10.8-4.3,17.6-4.3c6.3,0,11.9,1.4,16.7,4.2c4.8,2.8,8.6,6.6,11.3,11.4c2.7,4.8,4.1,10.1,4.1,16
		c0,1,0,1.9-0.1,3c0,1-0.1,2.1-0.2,3.2h-48.9c0.3,5,2.1,9,5.3,11.8c3.2,2.9,7,4.3,11.5,4.3c3.4,0,6.2-0.8,8.5-2.3
		c2.3-1.5,4-3.5,5.1-5.9h16.9c-1.2,4.1-3.2,7.8-6,11.1c-2.8,3.3-6.3,5.9-10.4,7.8C952.2,616,947.6,617,942.4,617z M942.5,563
		c-4.1,0-7.7,1.1-10.8,3.4c-3.1,2.3-5.1,5.8-6,10.4h32c-0.3-4.2-1.8-7.6-4.7-10.1C950.3,564.3,946.8,563,942.5,563z"/>
	<path d="M988.7,615.4v-64.3h14.8l1.6,12.1c2.3-4.2,5.5-7.5,9.5-9.9s8.8-3.7,14.2-3.7V567h-4.7c-3.6,0-6.9,0.6-9.7,1.7
		c-2.9,1.1-5.1,3.1-6.7,5.8c-1.6,2.8-2.4,6.6-2.4,11.5v29.3H988.7z"/>
	<path d="M1066.7,617c-5.7,0-10.7-0.9-15-2.8c-4.3-1.9-7.8-4.4-10.4-7.7c-2.6-3.3-4.2-7.1-4.7-11.4h16.7c0.5,2.5,1.9,4.7,4.2,6.4
		c2.3,1.8,5.3,2.7,8.9,2.7s6.3-0.7,8-2.2c1.7-1.5,2.5-3.2,2.5-5.1c0-2.8-1.2-4.6-3.6-5.6c-2.4-1-5.8-2-10.1-2.9
		c-2.8-0.6-5.6-1.3-8.4-2.2c-2.9-0.9-5.5-2-7.8-3.3c-2.4-1.3-4.3-3.1-5.8-5.2c-1.5-2.1-2.2-4.7-2.2-7.8c0-5.7,2.3-10.5,6.8-14.4
		s10.9-5.8,19.1-5.8c7.6,0,13.7,1.8,18.2,5.3c4.5,3.5,7.2,8.4,8.1,14.7h-15.7c-1-4.8-4.5-7.1-10.8-7.1c-3.1,0-5.5,0.6-7.2,1.8
		c-1.7,1.2-2.5,2.7-2.5,4.5c0,1.9,1.3,3.4,3.8,4.5c2.5,1.1,5.8,2.2,10,3.1c4.5,1,8.6,2.2,12.4,3.4c3.8,1.3,6.8,3.1,9,5.6
		c2.2,2.5,3.4,6,3.4,10.6c0.1,4-1,7.6-3.1,10.8c-2.2,3.2-5.3,5.7-9.3,7.5C1077,616.1,1072.2,617,1066.7,617z"/>
</g>
<rect class="st0" width="1280" height="1024"/>
<g>
	<g>
		<g>
			<path class="st1" d="M842.2,361l-1.6-2.1c-1.7-2.2-3.4-4.4-5.2-6.5l0,0c-59.5-72.8-153.1-104.6-241.6-88
				c-33.2,6.2-65.7,19.3-95.4,39.6c-30.5,20.8-55.1,47.2-73.1,76.9c-7.7,12.6-14.2,25.8-19.5,39.4c0,0,0,0,0,0.1c0,0,0,0,0,0
				c-4.2,10.8-7.7,21.9-10.4,33.2l0,0c-0.1,0.5-0.3,1.1-0.4,1.6c0,0.1,0,0.2-0.1,0.3c-15.3,66.2-3.9,138.3,37.4,198.8
				c14.4,21.1,31.4,39.3,50.4,54.5c12.9,10.4,26.7,19.3,41.2,26.9c71.1,37,157.8,39,232.2,0.6c0.1-0.1,0.2-0.1,0.4-0.2
				c8.9-4.6,17.7-9.9,26.2-15.7c0.8-0.6,1.6-1.1,2.4-1.7c32.2-22.5,57.5-51.2,75.5-83.3c0,0,0,0,0,0c20.8-37.2,31.7-79,32.1-121.2
				c0.1-16.2-1.3-32.5-4.3-48.7c-0.9-4.9-2-9.8-3.2-14.7c-7-28.1-19.1-55.4-36.3-80.7C846.6,367,844.4,364,842.2,361z M743.1,638.5
				c-17.8,12.2-37,20.8-56.7,26c-33,8.7-67.6,8-99.7-1.6c-21.4-6.4-41.8-16.6-59.9-30.6c-15-11.6-28.5-25.6-39.7-42.1
				c-25-36.6-35-79.1-31.3-120.1c4.2-47.3,26.6-92.7,65.1-124.9c4.6-3.9,9.5-7.6,14.6-11.1c67.3-45.9,154.2-41.2,215.6,5.7
				c15.3,11.6,29,25.9,40.4,42.6c23.4,34.2,33.6,73.5,31.9,112c-0.8,17.7-4.1,35.2-9.9,51.9C801,582.6,777.1,615.2,743.1,638.5z"/>
		</g>
	</g>
	<path class="st2" d="M892.6,514.2c-0.4,42.3-11.3,84.1-32.1,121.2c0,0,0,0,0,0c-18,32.1-43.3,60.8-75.5,83.3
		c-9.4,6.3-19,12.1-28.6,17.4c-0.1,0.1-0.2,0.1-0.4,0.2c-74.3,38.4-161,36.5-232.2-0.6c7.4-12.1,21.1-31.8,43.3-54.4
		c5.9-6,12.4-12.2,19.5-18.5c12-10.6,25.9-21.6,41.7-32.6c1.8-1.3,3.7-2.5,5.6-3.8c34.7-23.2,78.7-45.9,133.9-64.4
		c16.9-5.7,32-10.9,45.5-15.8c16-5.8,29.8-10.9,41.5-15.7C870.8,524.3,883.1,518.9,892.6,514.2z"/>
	<path class="st3" d="M860.5,635.4C860.5,635.4,860.5,635.4,860.5,635.4c-18,32.2-43.3,60.8-75.5,83.3c-0.8,0.6-1.6,1.1-2.4,1.7
		c-8.5,5.8-17.3,11-26.2,15.7c-0.1,0.1-0.2,0.1-0.4,0.2c-74.3,38.4-161,36.5-232.2-0.6c-14.5-7.5-28.3-16.5-41.2-26.9
		c-18.9-15.2-36-33.4-50.4-54.5c-41.3-60.5-52.7-132.6-37.4-198.8c0-0.1,0-0.2,0.1-0.3c0,0,0.1-0.1,0.3-0.2c2.5-1.3,19-8.2,60.4,15
		c29.5,16.5,71.8,48.4,130.5,108.6c6,6.1,12.2,12.6,18.6,19.4c10,10.6,19.7,20.1,29.2,28.5c18.5,16.4,36,28.8,52.4,37.9
		C798.6,726.9,860.5,635.4,860.5,635.4z"/>
	<path class="st4" d="M395,455.2c0.1-0.6,0.3-1.1,0.4-1.6c0,0.6-0.1,1.1-0.1,1.4c0,0.4,0,0.6,0,0.6l-0.4-0.1
		C394.9,455.4,395,455.3,395,455.2z"/>
	<path class="st5" d="M835.4,352.4c-30.1-5.4-58.2-9.5-84.4-12.6c-104.4-12.3-178.1-7.5-230.3,5.4c-70.5,17.5-101.4,49.9-115,75.1
		c5.3-13.6,11.8-26.8,19.5-39.4c18.1-29.6,42.6-56,73.1-76.9c29.7-20.3,62.2-33.3,95.4-39.6C682.3,247.9,775.9,279.6,835.4,352.4z"
		/>
</g>
</svg>
